<svg width="18" height="16" viewBox="0 0 18 16" fill="none" xmlns="http://www.w3.org/2000/svg">
<path d="M17.1291 12.3167H10.742C10.7033 12.3144 10.6645 12.3202 10.6282 12.3338C10.5919 12.3474 10.559 12.3685 10.5315 12.3956C10.5041 12.4228 10.4828 12.4553 10.469 12.4912C10.4553 12.5271 10.4493 12.5654 10.4517 12.6037V12.8908H9.00007C8.96134 12.8885 8.92255 12.8943 8.88626 12.9079C8.84998 12.9215 8.81703 12.9426 8.78959 12.9697C8.76215 12.9968 8.74085 13.0294 8.72708 13.0653C8.71332 13.1012 8.70741 13.1395 8.70975 13.1778V13.6371H3.94846C3.30906 13.6147 2.70338 13.3479 2.25903 12.8928C1.81467 12.4377 1.56634 11.8298 1.56634 11.1972C1.56634 10.5647 1.81467 9.95682 2.25903 9.5017C2.70338 9.04659 3.30906 8.77976 3.94846 8.75743H14.0517C14.9219 8.73474 15.7488 8.377 16.3562 7.76044C16.9636 7.14387 17.3035 6.31719 17.3035 5.4565C17.3035 4.59582 16.9636 3.76914 16.3562 3.15258C15.7488 2.53601 14.9219 2.17827 14.0517 2.15558H10.742V1.69632C10.7443 1.65802 10.7384 1.61967 10.7247 1.5838C10.7109 1.54793 10.6896 1.51535 10.6622 1.48822C10.6347 1.46109 10.6018 1.44003 10.5655 1.42642C10.5292 1.41281 10.4904 1.40697 10.4517 1.40928H9.00007V1.12225C9.00241 1.08395 8.9965 1.0456 8.98274 1.00973C8.96898 0.973854 8.94767 0.941276 8.92023 0.914147C8.89279 0.887018 8.85984 0.865954 8.82356 0.852347C8.78728 0.838739 8.74849 0.832898 8.70975 0.835209H4.06459C4.02585 0.832898 3.98706 0.838739 3.95078 0.852347C3.9145 0.865954 3.88155 0.887018 3.85411 0.914147C3.82667 0.941276 3.80536 0.973854 3.7916 1.00973C3.77784 1.0456 3.77193 1.08395 3.77427 1.12225V1.40928H2.03233C1.9936 1.40697 1.95481 1.41281 1.91852 1.42642C1.88224 1.44003 1.84929 1.46109 1.82185 1.48822C1.79441 1.51535 1.7731 1.54793 1.75934 1.5838C1.74558 1.61967 1.73967 1.65802 1.74201 1.69632V3.41854C1.73967 3.45684 1.74558 3.49519 1.75934 3.53106C1.7731 3.56694 1.79441 3.59951 1.82185 3.62664C1.84929 3.65377 1.88224 3.67483 1.91852 3.68844C1.95481 3.70205 1.9936 3.70789 2.03233 3.70558H3.77427V3.99262C3.77193 4.03091 3.77784 4.06926 3.7916 4.10514C3.80536 4.14101 3.82667 4.17359 3.85411 4.20072C3.88155 4.22784 3.9145 4.24891 3.95078 4.26252C3.98706 4.27612 4.02585 4.28196 4.06459 4.27965H8.70975C8.74849 4.28196 8.78728 4.27612 8.82356 4.26252C8.85984 4.24891 8.89279 4.22784 8.92023 4.20072C8.94767 4.17359 8.96898 4.14101 8.98274 4.10514C8.9965 4.06926 9.00241 4.03091 9.00007 3.99262V3.70558H10.4517C10.4904 3.70789 10.5292 3.70205 10.5655 3.68844C10.6018 3.67483 10.6347 3.65377 10.6622 3.62664C10.6896 3.59951 10.7109 3.56694 10.7247 3.53106C10.7384 3.49519 10.7443 3.45684 10.742 3.41854V2.95928H14.0517C14.6911 2.98161 15.2968 3.24844 15.7411 3.70355C16.1855 4.15867 16.4338 4.76654 16.4338 5.3991C16.4338 6.03166 16.1855 6.63953 15.7411 7.09464C15.2968 7.54976 14.6911 7.81659 14.0517 7.83891H3.94846C3.07822 7.86161 2.25134 8.21934 1.64395 8.83591C1.03655 9.45248 0.696655 10.2792 0.696655 11.1398C0.696655 12.0005 1.03655 12.8272 1.64395 13.4438C2.25134 14.0603 3.07822 14.4181 3.94846 14.4408H8.70975V14.9C8.70741 14.9383 8.71332 14.9767 8.72708 15.0125C8.74085 15.0484 8.76215 15.081 8.78959 15.1081C8.81703 15.1353 8.84998 15.1563 8.88626 15.1699C8.92255 15.1835 8.96134 15.1894 9.00007 15.1871H10.4517V15.4741C10.4493 15.5124 10.4553 15.5507 10.469 15.5866C10.4828 15.6225 10.5041 15.6551 10.5315 15.6822C10.559 15.7093 10.5919 15.7304 10.6282 15.744C10.6645 15.7576 10.7033 15.7634 10.742 15.7611H17.1291C17.1678 15.7634 17.2066 15.7576 17.2429 15.744C17.2792 15.7304 17.3121 15.7093 17.3396 15.6822C17.367 15.6551 17.3883 15.6225 17.4021 15.5866C17.4159 15.5507 17.4218 15.5124 17.4194 15.4741V12.6037C17.4218 12.5654 17.4159 12.5271 17.4021 12.4912C17.3883 12.4553 17.367 12.4228 17.3396 12.3956C17.3121 12.3685 17.2792 12.3474 17.2429 12.3338C17.2066 12.3202 17.1678 12.3144 17.1291 12.3167ZM2.72004 3.36084H2.19624V3.25348H2.72004V3.36084ZM2.72004 3.14843H2.19624V3.04108H2.72004V3.14843ZM2.72004 2.93602H2.19624V2.82867H2.72004V2.93602ZM2.72004 2.72419H2.19624V2.61684H2.72004V2.72419ZM2.72004 2.51178H2.19624V2.40443H2.72004V2.51178ZM2.72004 2.29937H2.19624V2.19202H2.72004V2.29937ZM2.72004 2.08697H2.19624V1.97961H2.72004V2.08697ZM2.72004 1.87456H2.19624V1.76778H2.72004V1.87456Z" fill="#303030"/>
</svg>
