<svg width="65" height="65" viewBox="0 0 65 65" fill="none" xmlns="http://www.w3.org/2000/svg">
<circle cx="32.5" cy="32.5" r="32.5" fill="#6839CF"/>
<path d="M32.9114 20.3921C26.1061 20.3921 20.5696 25.9286 20.5696 32.7339V37.8471C20.5696 39.1109 21.6766 40.1389 23.0379 40.1389H24.2721C24.5994 40.1389 24.9134 40.0089 25.1448 39.7774C25.3763 39.546 25.5063 39.2321 25.5063 38.9048V32.5574C25.5063 32.2301 25.3763 31.9161 25.1448 31.6847C24.9134 31.4532 24.5994 31.3232 24.2721 31.3232H23.1515C23.8377 26.5469 27.9475 22.8604 32.9114 22.8604C37.8752 22.8604 41.985 26.5469 42.6712 31.3232H41.5506C41.2233 31.3232 40.9094 31.4532 40.6779 31.6847C40.4464 31.9161 40.3164 32.2301 40.3164 32.5574V40.1389C40.3164 41.5002 39.2094 42.6073 37.8481 42.6073H35.3797V41.3731H30.443V45.0756H37.8481C40.5707 45.0756 42.7848 42.8615 42.7848 40.1389C44.1461 40.1389 45.2531 39.1109 45.2531 37.8471V32.7339C45.2531 25.9286 39.7166 20.3921 32.9114 20.3921Z" fill="white"/>
</svg>
