<svg width="65" height="65" viewBox="0 0 65 65" fill="none" xmlns="http://www.w3.org/2000/svg">
<circle cx="32.5" cy="32.7344" r="32.5" fill="#6839CF"/>
<path d="M45.2045 20.5266C45.129 20.3388 44.9841 20.1873 44.7998 20.1036C44.6155 20.0199 44.406 20.0105 44.215 20.0773C44.0239 20.1441 43.866 20.282 43.774 20.4623C43.682 20.6426 43.6631 20.8514 43.7212 21.0453C44.9289 24.5163 42.5317 27.1085 40.7039 28.4969L39.9655 27.4387C39.7172 27.0838 39.1621 26.7887 38.7305 26.7835L34.5861 26.8017C34.0798 26.817 33.5871 26.9689 33.16 27.2411L20.9478 35.8042C20.6637 36.0041 20.4704 36.3084 20.4102 36.6505C20.3501 36.9926 20.4279 37.3446 20.6267 37.6294L26.1764 45.5698C26.5924 46.1613 27.2567 46.0898 27.8495 45.6764L40.0617 37.112C40.4127 36.8637 40.8183 36.3281 40.9613 35.9186L42.2587 31.8301C42.4017 31.4219 42.3146 30.7992 42.0663 30.4443L41.6165 29.7995C44.0709 27.9184 46.6189 24.5943 45.2045 20.5266ZM39.5222 32.692C39.2972 32.8495 39.0434 32.9611 38.7753 33.0205C38.5071 33.0799 38.2299 33.0858 37.9595 33.038C37.6891 32.9902 37.4307 32.8896 37.1992 32.7419C36.9677 32.5942 36.7675 32.4023 36.6102 32.1772C36.2916 31.7218 36.1667 31.1585 36.263 30.6111C36.3593 30.0637 36.6688 29.5769 37.1237 29.2574C37.4803 29.0076 37.906 28.8754 38.3414 28.8794C38.7768 28.8834 39.2001 29.0233 39.5521 29.2795C39.1985 29.4927 38.9554 29.6175 38.9099 29.637C38.7487 29.7139 38.6184 29.8432 38.5404 30.0037C38.4623 30.1643 38.4411 30.3466 38.4803 30.5208C38.5194 30.695 38.6165 30.8507 38.7558 30.9625C38.895 31.0743 39.068 31.1354 39.2466 31.1359C39.3584 31.1359 39.4728 31.1099 39.5807 31.0592C39.8329 30.9396 40.1033 30.7979 40.3854 30.6302C40.4503 31.0203 40.4037 31.4208 40.2509 31.7856C40.0982 32.1503 39.8456 32.4645 39.5222 32.692Z" fill="white"/>
</svg>
