<svg width="65" height="68" viewBox="0 0 65 68" fill="none" xmlns="http://www.w3.org/2000/svg">
<circle cx="32.5" cy="34.0317" r="32.5" fill="#6839CF"/>
<path d="M41.0733 27.0118C40.84 26.3235 40.1867 25.8335 39.4167 25.8335H26.5833C25.8133 25.8335 25.1717 26.3235 24.9267 27.0118L22.5 34.0002V43.3335C22.5 43.9752 23.025 44.5002 23.6667 44.5002H24.8333C25.475 44.5002 26 43.9752 26 43.3335V42.1668H40V43.3335C40 43.9752 40.525 44.5002 41.1667 44.5002H42.3333C42.975 44.5002 43.5 43.9752 43.5 43.3335V34.0002L41.0733 27.0118ZM26.5833 38.6668C25.615 38.6668 24.8333 37.8852 24.8333 36.9168C24.8333 35.9485 25.615 35.1668 26.5833 35.1668C27.5517 35.1668 28.3333 35.9485 28.3333 36.9168C28.3333 37.8852 27.5517 38.6668 26.5833 38.6668ZM39.4167 38.6668C38.4483 38.6668 37.6667 37.8852 37.6667 36.9168C37.6667 35.9485 38.4483 35.1668 39.4167 35.1668C40.385 35.1668 41.1667 35.9485 41.1667 36.9168C41.1667 37.8852 40.385 38.6668 39.4167 38.6668ZM24.8333 32.8335L26.5833 27.5835H39.4167L41.1667 32.8335H24.8333Z" fill="white"/>
</svg>
