<svg width="77" height="77" viewBox="0 0 77 77" fill="none" xmlns="http://www.w3.org/2000/svg">
<path d="M58.1546 45.7794C52.8026 45.7794 48.4487 50.1334 48.4487 55.4853C48.4487 60.8373 52.8026 65.1912 58.1546 65.1912C63.5074 65.1912 67.8605 60.8373 67.8605 55.4853C67.8605 50.1334 63.5065 45.7794 58.1546 45.7794ZM58.1546 60.3383C55.4782 60.3383 53.3016 58.1617 53.3016 55.4853C53.3016 52.809 55.4782 50.6324 58.1546 50.6324C60.8309 50.6324 63.0075 52.809 63.0075 55.4853C63.0075 58.1618 60.8309 60.3383 58.1546 60.3383Z" fill="#6839CF"/>
<path d="M24.9929 45.7794C19.6409 45.7794 15.287 50.1334 15.287 55.4853C15.287 60.8373 19.6409 65.1912 24.9929 65.1912C30.3448 65.1912 34.6988 60.8373 34.6988 55.4853C34.6988 50.1334 30.3448 45.7794 24.9929 45.7794ZM24.9929 60.3383C22.3165 60.3383 20.1399 58.1617 20.1399 55.4853C20.1399 52.809 22.3165 50.6324 24.9929 50.6324C27.6685 50.6324 29.8458 52.809 29.8458 55.4853C29.8458 58.1618 27.6692 60.3383 24.9929 60.3383Z" fill="#6839CF"/>
<path d="M64.6904 17.998C64.2779 17.1787 63.4392 16.6618 62.5219 16.6618H49.7425V21.5148H61.0256L67.6328 34.6565L71.9698 32.4758L64.6904 17.998Z" fill="#6839CF"/>
<path d="M50.8752 53.1398H32.5149V57.9928H50.8752V53.1398Z" fill="#6839CF"/>
<path d="M17.7132 53.1398H9.30152C7.96124 53.1398 6.87512 54.2261 6.87512 55.5662C6.87512 56.9065 7.96139 57.9926 9.30152 57.9926H17.7133C19.0536 57.9926 20.1397 56.9064 20.1397 55.5662C20.1397 54.226 19.0534 53.1398 17.7132 53.1398Z" fill="#6839CF"/>
<path d="M76.4905 38.3058L71.7177 32.1587C71.2592 31.5666 70.5514 31.2204 69.8016 31.2204H52.1692V14.2352C52.1692 12.8949 51.0829 11.8088 49.7428 11.8088H9.30152C7.96124 11.8088 6.87512 12.895 6.87512 14.2352C6.87512 15.5753 7.96139 16.6616 9.30152 16.6616H47.3162V33.6468C47.3162 34.9871 48.4025 36.0732 49.7426 36.0732H68.6133L72.1471 40.6253V53.1394H65.4338C64.0935 53.1394 63.0074 54.2257 63.0074 55.5658C63.0074 56.9061 64.0936 57.9922 65.4338 57.9922H74.5735C75.9137 57.9922 76.9999 56.9059 77 55.5658V39.7941C77 39.2554 76.8204 38.7312 76.4905 38.3058Z" fill="#6839CF"/>
<path d="M17.5513 40.8456H6.38942C5.04913 40.8456 3.96301 41.9319 3.96301 43.272C3.96301 44.6123 5.04928 45.6984 6.38942 45.6984H17.5511C18.8914 45.6984 19.9775 44.6121 19.9775 43.272C19.9777 41.9319 18.8914 40.8456 17.5513 40.8456Z" fill="#6839CF"/>
<path d="M23.1323 31.3013H2.4264C1.08627 31.3013 0 32.3876 0 33.7279C0 35.0682 1.08627 36.1543 2.4264 36.1543H23.1323C24.4726 36.1543 25.5587 35.068 25.5587 33.7279C25.5587 32.3878 24.4726 31.3013 23.1323 31.3013Z" fill="#6839CF"/>
<path d="M27.0954 21.7573H6.38942C5.04913 21.7573 3.96301 22.8436 3.96301 24.1837C3.96301 25.524 5.04928 26.6101 6.38942 26.6101H27.0954C28.4356 26.6101 29.5218 25.5239 29.5218 24.1837C29.5219 22.8436 28.4356 21.7573 27.0954 21.7573Z" fill="#6839CF"/>
</svg>
