<svg width="75" height="75" viewBox="0 0 75 75" fill="none" xmlns="http://www.w3.org/2000/svg">
<g clip-path="url(#clip0)">
<path d="M16.0938 28.1168H8.16613C7.14425 28.1168 6.3158 28.9453 6.3158 29.9672V49.7863C6.3158 50.8081 7.14425 51.6366 8.16613 51.6366H16.0938C17.1157 51.6366 17.9441 50.8081 17.9441 49.7863V29.9672C17.9441 28.9453 17.1157 28.1168 16.0938 28.1168Z" fill="#6839CF"/>
<path d="M50.7773 49.5231C51.7991 49.5231 52.6276 48.6946 52.6276 47.6728V43.5774H52.7591C53.781 43.5774 54.6094 42.7489 54.6094 41.727C54.6094 40.7052 53.781 39.8767 52.7591 39.8767H52.6276V29.8356C52.6276 29.0873 52.1768 28.4126 51.4854 28.1261C50.7943 27.8397 49.9984 27.9978 49.4691 28.527C49.469 28.527 43.692 34.3022 40.953 37.0392C39.7228 38.2761 39.0173 39.9848 39.0173 41.727C39.0173 42.7489 39.8458 43.5774 40.8676 43.5774H48.9269V47.6728C48.9269 48.6946 49.7553 49.5231 50.7773 49.5231ZM43.3724 39.8767C43.4353 39.7987 43.5021 39.724 43.5728 39.6528C44.9587 38.2679 47.1262 36.1015 48.9268 34.3015V39.8767H43.3724Z" fill="#6839CF"/>
<path d="M35.781 47.6727C35.781 46.6509 34.9525 45.8224 33.9306 45.8224H26.526C26.5888 45.7444 26.6556 45.6696 26.7263 45.5985C29.4615 42.8653 35.2388 37.0898 35.2388 37.0898C35.5859 36.7428 35.7811 36.2721 35.7811 35.7813V34.7904C35.7811 31.038 32.7284 27.9852 28.9761 27.9852C25.1881 27.9852 22.1709 31.0536 22.1709 34.7883V34.7902C22.1709 35.8121 22.9994 36.6396 24.0213 36.6396C25.0431 36.6396 25.8716 35.8101 25.8716 34.7883C25.8716 33.0908 27.2384 31.6859 28.9761 31.6859C30.6879 31.6859 32.0804 33.0786 32.0804 34.7904V35.0146C30.5801 36.5145 26.3365 40.7564 24.1065 42.985C22.8763 44.2219 22.1709 45.9306 22.1709 47.6727C22.1709 48.6946 22.9994 49.5231 24.0213 49.5231H33.9308C34.9525 49.5231 35.781 48.6946 35.781 47.6727Z" fill="#6839CF"/>
<path d="M37.8949 10.0165C47.1818 10.0165 55.0069 16.3949 57.2198 25.001C57.9657 24.6275 58.8064 24.4161 59.6959 24.4161H60.8867C58.3823 14.0443 49.0248 6.3158 37.8949 6.3158C26.7649 6.3158 17.4074 14.0443 14.9032 24.4161H16.0939C16.9834 24.4161 17.824 24.6275 18.57 25.001C20.7828 16.3949 28.6079 10.0165 37.8949 10.0165Z" fill="#6839CF"/>
<path d="M56.8585 54.5547C55.0089 58.8188 50.7587 61.8093 45.8226 61.8093H43.4056C42.6308 59.5081 40.4541 57.8455 37.8951 57.8455C34.6892 57.8455 32.0809 60.4537 32.0809 63.6596C32.0809 66.8655 34.6891 69.4737 37.895 69.4737C40.454 69.4737 42.6307 67.8111 43.4055 65.5099H45.8225C52.5393 65.5099 58.285 61.276 60.5334 55.3372H59.6959C58.6597 55.3372 57.6894 55.051 56.8585 54.5547Z" fill="#6839CF"/>
<path d="M67.6232 28.1168H59.6955C58.6736 28.1168 57.8452 28.9453 57.8452 29.9672V49.7863C57.8452 50.8081 58.6736 51.6366 59.6955 51.6366H67.6232C68.6451 51.6366 69.4735 50.8081 69.4735 49.7863V29.9672C69.4735 28.9453 68.6451 28.1168 67.6232 28.1168Z" fill="#6839CF"/>
</g>
<defs>
<clipPath id="clip0">
<rect width="63.1579" height="63.1579" fill="white" transform="translate(6.3158 6.3158)"/>
</clipPath>
</defs>
</svg>
