<svg width="17" height="18" viewBox="0 0 17 18" fill="none" xmlns="http://www.w3.org/2000/svg">
<path d="M12.9143 16.6629C12.8866 16.8795 12.7862 17.0804 12.6295 17.2325C12.4728 17.3846 12.2691 17.479 12.0517 17.5003H11.038C10.7959 17.4806 10.5695 17.3731 10.4013 17.1979C10.2331 17.0228 10.1348 16.7921 10.125 16.5495V7.42871C10.9405 7.9941 11.9243 8.26501 12.9143 8.19686V16.6629Z" fill="#303030"/>
<path d="M9.06006 3.80845C9.06006 5.81067 11.0245 7.59882 13.3031 7.42882C13.974 7.41047 14.6294 7.22385 15.2093 6.8861C15.7892 6.54835 16.275 6.0703 16.6219 5.49586C16.9367 4.99216 16.9367 4.85364 16.9367 3.68882C16.9367 2.82623 17.0123 2.52401 16.6345 2.10845C15.753 1.1829 14.8023 0.238454 13.3031 0.181787C11.0245 0.0999354 9.06006 1.80371 9.06006 3.80845ZM15.2493 2.75697C15.2611 2.66597 15.3057 2.58239 15.3746 2.52182C15.4436 2.46126 15.5322 2.42786 15.6239 2.42786C15.7157 2.42786 15.8043 2.46126 15.8733 2.52182C15.9422 2.58239 15.9868 2.66597 15.9986 2.75697V4.9103C15.9868 5.0013 15.9422 5.08489 15.8733 5.14545C15.8043 5.20601 15.7157 5.23941 15.6239 5.23941C15.5322 5.23941 15.4436 5.20601 15.3746 5.14545C15.3057 5.08489 15.2611 5.0013 15.2493 4.9103V2.75697ZM11.0182 3.79271C11.0184 3.63652 11.0805 3.48678 11.191 3.3764C11.3015 3.26601 11.4513 3.20401 11.6075 3.20401H12.7906C12.9467 3.20401 13.0965 3.26603 13.2069 3.37644C13.3173 3.48684 13.3793 3.63658 13.3793 3.79271C13.3793 3.94885 13.3173 4.09858 13.2069 4.20899C13.0965 4.31939 12.9467 4.38141 12.7906 4.38141H11.6069C11.4508 4.38125 11.3012 4.31917 11.1908 4.2088C11.0805 4.09844 11.0184 3.94879 11.0182 3.79271Z" fill="#303030"/>
<path d="M3.69665 0.183939C2.1975 0.240606 1.24676 1.18505 0.365275 2.11061C-0.012503 2.52616 0.0630526 2.82838 0.0630526 3.69098C0.0630526 4.85579 0.0630526 4.99431 0.377867 5.49801C0.724817 6.07245 1.21055 6.55051 1.79044 6.88826C2.37034 7.22601 3.02581 7.41263 3.69665 7.43098C5.97528 7.60098 7.93972 5.81283 7.93972 3.81061C7.93972 1.80838 5.97528 0.102717 3.69665 0.183939ZM1.75046 4.91246C1.73864 5.00346 1.6941 5.08704 1.62516 5.1476C1.55622 5.20817 1.46759 5.24157 1.37583 5.24157C1.28407 5.24157 1.19544 5.20817 1.1265 5.1476C1.05756 5.08704 1.01302 5.00346 1.0012 4.91246V2.75912C1.01302 2.66813 1.05756 2.58454 1.1265 2.52398C1.19544 2.46342 1.28407 2.43002 1.37583 2.43002C1.46759 2.43002 1.55622 2.46342 1.62516 2.52398C1.6941 2.58454 1.73864 2.66813 1.75046 2.75912V4.91246ZM5.39287 4.38357H4.20979C4.05366 4.38357 3.90392 4.32155 3.79352 4.21114C3.68311 4.10074 3.62109 3.951 3.62109 3.79487C3.62109 3.63873 3.68311 3.48899 3.79352 3.37859C3.90392 3.26819 4.05366 3.20616 4.20979 3.20616H5.39287C5.549 3.20616 5.69874 3.26819 5.80914 3.37859C5.91955 3.48899 5.98157 3.63873 5.98157 3.79487C5.98157 3.951 5.91955 4.10074 5.80914 4.21114C5.69874 4.32155 5.549 4.38357 5.39287 4.38357Z" fill="#303030"/>
<path d="M4.08691 16.6686C4.11456 16.8852 4.21496 17.0861 4.37167 17.2382C4.52839 17.3903 4.73212 17.4847 4.94951 17.506H5.96321C6.20524 17.4863 6.43171 17.3788 6.5999 17.2036C6.76809 17.0285 6.86636 16.7978 6.87617 16.5552V7.43188C6.06051 7.997 5.07689 8.26788 4.08691 8.20003V16.6686Z" fill="#303030"/>
</svg>
