<svg width="11" height="22" viewBox="0 0 11 22" fill="none" xmlns="http://www.w3.org/2000/svg">
<path d="M10.9996 9.99995V7.59254H10.5213V6.78846C10.5201 6.42216 10.421 6.06293 10.2344 5.74846C10.0431 5.41624 9.70349 5.13698 9.49784 4.8192C9.20971 4.37667 8.99789 3.88832 8.87131 3.37476C8.74218 2.82106 8.78523 2.24809 8.67044 1.68957C8.63166 1.50245 8.53118 1.33403 8.38532 1.21166C8.23945 1.08929 8.05678 1.02016 7.86697 1.0155C7.0019 0.91139 6.13166 0.856734 5.26044 0.851797C4.31694 0.825678 3.37322 0.895039 2.44349 1.05883C2.31351 1.09251 2.19523 1.16153 2.1016 1.25834C2.00797 1.35515 1.94259 1.47602 1.91262 1.60772C1.86001 1.86772 1.81697 2.50809 1.76914 2.87402C1.71274 3.66716 1.39651 4.41905 0.870009 5.0118L0.650009 5.25735C0.44579 5.45611 0.28306 5.69393 0.171366 5.95685C0.0596731 6.21977 0.00126674 6.50251 -0.000425439 6.78846V15.1374C-0.00639142 15.4272 0.0499218 15.715 0.16466 15.9809C0.279398 16.2468 0.449853 16.4846 0.664357 16.6781C0.970846 16.9163 1.22478 17.2162 1.41003 17.5585C1.59528 17.9008 1.7078 18.2782 1.74044 18.6666C1.82653 19.2251 1.74044 19.7933 1.87436 20.3325C1.91709 20.4692 1.99637 20.5913 2.10351 20.6856C2.21066 20.7799 2.34152 20.8426 2.48175 20.867C3.39854 21.0312 4.32962 21.1006 5.26044 21.074C6.19761 21.1004 7.13501 21.031 8.05827 20.867C8.19177 20.8364 8.31409 20.7688 8.41131 20.6718C8.50854 20.5748 8.57678 20.4522 8.60827 20.3181C8.66088 20.0581 8.53653 18.7918 8.9861 18.0262C9.14392 17.7566 9.81827 16.7407 9.81827 16.7407C9.81827 16.7407 9.89001 16.6348 9.90914 16.6155C10.292 16.2188 10.5108 15.6904 10.5213 15.1374V9.99995H10.9996ZM10.0431 15.1374C10.0589 15.5402 9.91768 15.9333 9.64964 16.2329C9.38159 16.5324 9.0079 16.7146 8.60827 16.7407H1.91262C1.51299 16.7146 1.13929 16.5324 0.871249 16.2329C0.603204 15.9333 0.462027 15.5402 0.477835 15.1374V6.78846C0.462027 6.38562 0.603204 5.99249 0.871249 5.69296C1.13929 5.39343 1.51299 5.21119 1.91262 5.18513H8.60827C9.0079 5.21119 9.38159 5.39343 9.64964 5.69296C9.91768 5.99249 10.0589 6.38562 10.0431 6.78846V15.1374Z" fill="#303030"/>
</svg>
