<svg width="11" height="26" viewBox="0 0 11 26" fill="none" xmlns="http://www.w3.org/2000/svg">
<g clip-path="url(#clip0)">
<path d="M10.9996 12.9999V10.5925H10.5213V9.78846C10.5201 9.42216 10.421 9.06293 10.2344 8.74846C10.0431 8.41624 9.70349 8.13698 9.49784 7.8192C9.20971 7.37667 8.99789 6.88832 8.87131 6.37476C8.74218 5.82106 8.78523 5.24809 8.67044 4.68957C8.63166 4.50245 8.53118 4.33403 8.38532 4.21166C8.23945 4.08929 8.05678 4.02016 7.86697 4.0155C7.0019 3.91139 6.13166 3.85673 5.26044 3.8518C4.31694 3.82568 3.37322 3.89504 2.44349 4.05883C2.31351 4.09251 2.19523 4.16153 2.1016 4.25834C2.00797 4.35515 1.94259 4.47602 1.91262 4.60772C1.86001 4.86772 1.81697 5.50809 1.76914 5.87402C1.71274 6.66716 1.39651 7.41905 0.870009 8.0118L0.650009 8.25735C0.44579 8.45611 0.28306 8.69393 0.171366 8.95685C0.0596731 9.21977 0.00126674 9.50251 -0.000425439 9.78846V18.1374C-0.00639142 18.4272 0.0499218 18.715 0.16466 18.9809C0.279398 19.2468 0.449853 19.4846 0.664357 19.6781C0.970846 19.9163 1.22478 20.2162 1.41003 20.5585C1.59528 20.9008 1.7078 21.2782 1.74044 21.6666C1.82653 22.2251 1.74044 22.7933 1.87436 23.3325C1.91709 23.4692 1.99637 23.5913 2.10351 23.6856C2.21066 23.7799 2.34152 23.8426 2.48175 23.867C3.39854 24.0312 4.32962 24.1006 5.26044 24.074C6.19761 24.1004 7.13501 24.031 8.05827 23.867C8.19177 23.8364 8.31409 23.7688 8.41131 23.6718C8.50854 23.5748 8.57678 23.4522 8.60827 23.3181C8.66088 23.0581 8.53653 21.7918 8.9861 21.0262C9.14392 20.7566 9.81827 19.7407 9.81827 19.7407C9.81827 19.7407 9.89001 19.6348 9.90914 19.6155C10.292 19.2188 10.5108 18.6904 10.5213 18.1374V12.9999H10.9996ZM10.0431 18.1374C10.0589 18.5402 9.91768 18.9333 9.64964 19.2329C9.38159 19.5324 9.0079 19.7146 8.60827 19.7407H1.91262C1.51299 19.7146 1.13929 19.5324 0.871249 19.2329C0.603204 18.9333 0.462027 18.5402 0.477835 18.1374V9.78846C0.462027 9.38562 0.603204 8.99249 0.871249 8.69296C1.13929 8.39343 1.51299 8.21119 1.91262 8.18513H8.60827C9.0079 8.21119 9.38159 8.39343 9.64964 8.69296C9.91768 8.99249 10.0589 9.38562 10.0431 9.78846V18.1374Z" fill="#303030"/>
</g>
<defs>
<clipPath id="clip0">
<rect width="11" height="26" fill="white"/>
</clipPath>
</defs>
</svg>
