<svg width="16" height="16" viewBox="0 0 16 16" fill="none" xmlns="http://www.w3.org/2000/svg">
<path d="M8.35355 15.6464C8.15829 15.8417 7.84171 15.8417 7.64645 15.6464L6.94324 14.9432C6.7481 14.7481 6.74796 14.4318 6.94292 14.2364L11.7441 9.42662C11.9014 9.26906 11.7898 9 11.5672 9L0.499999 9C0.223856 9 -6.3153e-07 8.77614 -6.55671e-07 8.5L-7.43094e-07 7.5C-7.67235e-07 7.22386 0.223857 7 0.499999 7L11.5672 7C11.7898 7 11.9014 6.73094 11.7441 6.57338L6.94292 1.76355C6.74796 1.56824 6.7481 1.2519 6.94324 1.05676L7.64645 0.353552C7.84171 0.15829 8.15829 0.15829 8.35355 0.353553L15.6464 7.64645C15.8417 7.84171 15.8417 8.15829 15.6464 8.35355L8.35355 15.6464Z" fill="#6839CF"/>
</svg>
