<svg width="24" height="24" viewBox="0 0 24 24" fill="none" xmlns="http://www.w3.org/2000/svg">
<path d="M12.3536 19.6464C12.1583 19.8417 11.8417 19.8417 11.6464 19.6464L10.9432 18.9432C10.7481 18.7481 10.748 18.4318 10.9429 18.2364L15.7441 13.4266C15.9014 13.2691 15.7898 13 15.5672 13L4.5 13C4.22386 13 4 12.7761 4 12.5L4 11.5C4 11.2239 4.22386 11 4.5 11L15.5672 11C15.7898 11 15.9014 10.7309 15.7441 10.5734L10.9429 5.76355C10.748 5.56824 10.7481 5.2519 10.9432 5.05676L11.6464 4.35355C11.8417 4.15829 12.1583 4.15829 12.3536 4.35355L19.6464 11.6464C19.8417 11.8417 19.8417 12.1583 19.6464 12.3536L12.3536 19.6464Z" fill="#6839CF"/>
</svg>
