<svg width="22" height="22" viewBox="0 0 22 22" fill="none" xmlns="http://www.w3.org/2000/svg">
<path d="M6.58331 17.5001C5.39165 17.5001 4.42748 18.4751 4.42748 19.6667C4.42748 20.8584 5.39165 21.8334 6.58331 21.8334C7.77498 21.8334 8.74998 20.8584 8.74998 19.6667C8.74998 18.4751 7.77498 17.5001 6.58331 17.5001ZM0.083313 1.25008C0.083313 1.84591 0.570813 2.33341 1.16665 2.33341H2.24998L6.14998 10.5559L4.68748 13.1992C3.89665 14.6509 4.93665 16.4167 6.58331 16.4167H18.5C19.0958 16.4167 19.5833 15.9292 19.5833 15.3334C19.5833 14.7376 19.0958 14.2501 18.5 14.2501H6.58331L7.77498 12.0834H15.8458C16.6583 12.0834 17.3733 11.6392 17.7416 10.9676L21.62 3.93675C22.0208 3.22175 21.5008 2.33341 20.6775 2.33341H4.64415L3.91831 0.784248C3.74498 0.405081 3.35498 0.166748 2.94331 0.166748H1.16665C0.570813 0.166748 0.083313 0.654248 0.083313 1.25008ZM17.4166 17.5001C16.225 17.5001 15.2608 18.4751 15.2608 19.6667C15.2608 20.8584 16.225 21.8334 17.4166 21.8334C18.6083 21.8334 19.5833 20.8584 19.5833 19.6667C19.5833 18.4751 18.6083 17.5001 17.4166 17.5001Z" fill="white"/>
</svg>
