<svg width="21" height="17" viewBox="0 0 21 17" fill="none" xmlns="http://www.w3.org/2000/svg">
<path d="M20.6114 2.27986C20.6114 1.22386 19.7306 0.359863 18.6421 0.359863H2.80876C1.72021 0.359863 0.82959 1.22386 0.82959 2.27986V13.7999C0.82959 14.8559 1.72021 15.7199 2.80876 15.7199H9.73584H15.8779C16.3903 15.7199 16.8918 15.8679 17.3221 16.1462L17.7568 16.4274C18.3028 16.7806 18.9979 16.8085 19.5705 16.5003V16.5003C20.1437 16.1918 20.5033 15.5954 20.5086 14.9445L20.6114 2.27986ZM16.6629 10.9199C16.6629 11.4501 16.2331 11.8799 15.7029 11.8799H5.74792C5.21773 11.8799 4.78792 11.4501 4.78792 10.9199V10.9199C4.78792 10.3897 5.21773 9.95986 5.74792 9.95986H10.7254H15.7029C16.2331 9.95986 16.6629 10.3897 16.6629 10.9199V10.9199ZM16.6629 8.03986C16.6629 8.57006 16.2331 8.99986 15.7029 8.99986H5.74792C5.21773 8.99986 4.78792 8.57006 4.78792 8.03986V8.03986C4.78792 7.50967 5.21773 7.07986 5.74792 7.07986H15.7029C16.2331 7.07986 16.6629 7.50967 16.6629 8.03986V8.03986ZM16.6629 5.15986C16.6629 5.69006 16.2331 6.11986 15.7029 6.11986H5.74792C5.21773 6.11986 4.78792 5.69006 4.78792 5.15986V5.15986C4.78792 4.62967 5.21773 4.19986 5.74792 4.19986H15.7029C16.2331 4.19986 16.6629 4.62967 16.6629 5.15986V5.15986Z" fill="white"/>
</svg>
