<svg width="34" height="34" viewBox="0 0 34 34" fill="none" xmlns="http://www.w3.org/2000/svg">
<path d="M6.24241 16.6464C6.04715 16.8417 6.04715 17.1583 6.24241 17.3535L7.49395 18.6051C7.68909 18.8002 8.00543 18.8003 8.20074 18.6054L15.1845 11.6342C15.342 11.4769 15.6111 11.5885 15.6111 11.8111L15.6111 27.6111C15.6111 27.8872 15.8349 28.1111 16.1111 28.1111L17.8889 28.1111C18.165 28.1111 18.3889 27.8872 18.3889 27.6111L18.3889 11.8111C18.3889 11.5885 18.6579 11.4769 18.8155 11.6342L25.7992 18.6054C25.9945 18.8004 26.3108 18.8002 26.506 18.6051L27.7575 17.3535C27.9528 17.1583 27.9528 16.8417 27.7575 16.6464L17.3535 6.24242C17.1583 6.04715 16.8417 6.04715 16.6464 6.24242L6.24241 16.6464Z" fill="#687283"/>
</svg>
