<svg width="18" height="18" viewBox="0 0 18 18" fill="none" xmlns="http://www.w3.org/2000/svg">
<path d="M16.8159 0.504395H1.18395C0.808021 0.504395 0.504303 0.808113 0.504303 1.18404V16.816C0.504303 17.1919 0.808021 17.4956 1.18395 17.4956H16.8159C17.1918 17.4956 17.4955 17.1919 17.4955 16.816V1.18404C17.4955 0.808113 17.1918 0.504395 16.8159 0.504395ZM14.8534 5.46371H13.4962C12.4322 5.46371 12.2261 5.9692 12.2261 6.71257V8.3501H14.7663L14.435 10.9137H12.2261V17.4956H9.57763V10.9158H7.36239V8.3501H9.57763V6.45983C9.57763 4.26583 10.9178 3.07007 12.8761 3.07007C13.8148 3.07007 14.6198 3.14016 14.8555 3.17202V5.46371H14.8534Z" fill="white"/>
</svg>
