<svg width="20" height="19" viewBox="0 0 20 19" fill="none" xmlns="http://www.w3.org/2000/svg">
<path d="M9.69089 3.36C9.59611 3.20076 9.49126 3.04766 9.37743 2.90131L9.76803 3.36H9.69089ZM10.3158 3.36H10.232L10.6879 2.82465C10.551 2.99389 10.4264 3.17267 10.3158 3.36ZM14.5 1C13.7852 1 13.0748 1.16814 12.4293 1.47112C13.0716 1.1689 13.7805 1 14.5 1ZM17.3451 9.70601C18.3506 8.35093 19 6.97361 19 5.5C19 6.88177 18.4572 8.21142 17.3451 9.70601ZM10.7896 16.2746C12.3589 14.8537 13.7811 13.5658 14.9777 12.3712C13.7971 13.5507 12.3882 14.8293 10.7783 16.2892L10.7768 16.2905L10.7419 16.3223L10.7896 16.2746ZM9.29289 16.3571L9.35905 16.4233L9.22253 16.2999C9.22217 16.2996 9.22181 16.2993 9.22145 16.2989C6.62661 13.9409 4.55409 12.0566 3.11801 10.2996C1.69325 8.55653 1 7.06153 1 5.5C1 7.31411 1.98423 8.98229 3.40524 10.6427C4.83226 12.3101 6.8558 14.1426 9.21043 16.2746L9.29289 16.3571ZM7.34999 1.37361C6.76508 1.13238 6.13454 1 5.5 1C6.13799 1 6.76767 1.1328 7.34999 1.37361Z" fill="white" stroke="#9696A0" stroke-width="2"/>
</svg>
