<svg width="56" height="56" viewBox="0 0 56 56" fill="none" xmlns="http://www.w3.org/2000/svg">
<g clip-path="url(#clip0)">
<path d="M54.6349 10.1699H41.7248C43.1414 8.08943 43.2781 5.28057 41.8484 3.02296C39.9299 -0.0069437 35.9025 -0.911475 32.8727 1.00707C32.106 1.4927 30.8262 2.62812 28.5751 6.86213C28.3739 7.24167 28.1814 7.61354 27.9998 7.9712C27.8183 7.61354 27.6258 7.24167 27.4245 6.86213C25.1735 2.62801 23.8938 1.4927 23.1269 1.00707C20.0971 -0.911475 16.0697 -0.00683439 14.1512 3.02296C13.2215 4.49088 12.9195 6.23323 13.3003 7.92865C13.4829 8.74349 13.8132 9.50048 14.2704 10.1699H1.36471V26.0529H3.28326V55.9999H52.7164V26.0529H54.6349V10.1699ZM34.6272 3.77995C35.15 3.44854 35.7428 3.27901 36.3467 3.27901C36.5829 3.27901 36.8224 3.30526 37.0587 3.35776C37.8987 3.54698 38.6152 4.0512 39.0768 4.77865C40.0272 6.28048 39.5788 8.27657 38.0771 9.22715C37.1736 9.80027 33.8615 10.1196 30.5638 10.1689C32.0185 7.20885 33.7237 4.35198 34.6272 3.77995ZM16.923 4.77843C17.3845 4.05109 18.1011 3.54687 18.9411 3.35754C19.1773 3.30504 19.4168 3.27879 19.6531 3.27879C20.2568 3.27879 20.8496 3.44832 21.3726 3.77973C22.276 4.35176 23.9813 7.20874 25.4361 10.1686C23.7877 10.1435 22.135 10.0516 20.7819 9.89412C19.4289 9.73662 18.3745 9.51349 17.9228 9.22693C17.1954 8.76646 16.69 8.05006 16.5019 7.20995C16.3126 6.36995 16.4624 5.50588 16.923 4.77843ZM21.3604 52.7186H6.56462V26.0529H21.3604V52.7186ZM21.3604 22.7715H4.64618V13.4512H21.3605V22.7715H21.3604ZM31.3578 52.7186H24.6419V13.4512H31.3578V52.7186ZM49.435 52.7186H34.6392V26.0529H49.435V52.7186ZM51.3536 22.7715H34.6392V13.4512H51.3536V22.7715Z" fill="#6839CF"/>
</g>
<defs>
<clipPath id="clip0">
<rect width="56" height="56" fill="white"/>
</clipPath>
</defs>
</svg>
