<svg width="18" height="18" viewBox="0 0 18 18" fill="none" xmlns="http://www.w3.org/2000/svg">
<path d="M8.99998 6.13619C7.42303 6.13619 6.13611 7.4231 6.13611 9.00005C6.13611 10.577 7.42303 11.8639 8.99998 11.8639C10.5769 11.8639 11.8638 10.577 11.8638 9.00005C11.8638 7.4231 10.5769 6.13619 8.99998 6.13619ZM17.5894 9.00005C17.5894 7.81411 17.6002 6.63892 17.5336 5.45513C17.467 4.08013 17.1533 2.85982 16.1478 1.85435C15.1402 0.846733 13.9221 0.535209 12.5471 0.468608C11.3611 0.402006 10.1859 0.412748 9.00213 0.412748C7.81619 0.412748 6.641 0.402006 5.45721 0.468608C4.08221 0.535209 2.86189 0.848881 1.85643 1.85435C0.848808 2.86197 0.537285 4.08013 0.470683 5.45513C0.404081 6.64107 0.414824 7.81626 0.414824 9.00005C0.414824 10.1838 0.404081 11.3612 0.470683 12.545C0.537285 13.92 0.850956 15.1403 1.85643 16.1458C2.86404 17.1534 4.08221 17.4649 5.45721 17.5315C6.64314 17.5981 7.81834 17.5874 9.00213 17.5874C10.1881 17.5874 11.3633 17.5981 12.5471 17.5315C13.9221 17.4649 15.1424 17.1512 16.1478 16.1458C17.1555 15.1381 17.467 13.92 17.5336 12.545C17.6023 11.3612 17.5894 10.186 17.5894 9.00005ZM8.99998 13.4065C6.5615 13.4065 4.59353 11.4385 4.59353 9.00005C4.59353 6.56158 6.5615 4.59361 8.99998 4.59361C11.4385 4.59361 13.4064 6.56158 13.4064 9.00005C13.4064 11.4385 11.4385 13.4065 8.99998 13.4065ZM13.5869 5.44224C13.0176 5.44224 12.5578 4.98247 12.5578 4.41314C12.5578 3.8438 13.0176 3.38404 13.5869 3.38404C14.1562 3.38404 14.616 3.8438 14.616 4.41314C14.6162 4.54833 14.5897 4.68223 14.538 4.80716C14.4863 4.93209 14.4106 5.04561 14.315 5.1412C14.2194 5.2368 14.1059 5.31259 13.9809 5.36425C13.856 5.41591 13.7221 5.44241 13.5869 5.44224Z" fill="white"/>
</svg>
