<svg width="19" height="22" viewBox="0 0 19 22" fill="none" xmlns="http://www.w3.org/2000/svg">
<g clip-path="url(#clip0)">
<path fill-rule="evenodd" clip-rule="evenodd" d="M13.6283 3.25928H2.89147C2.74457 3.27448 2.60841 3.34595 2.5096 3.45972C2.4108 3.57348 2.35645 3.72136 2.35718 3.87446V7.74076H3.1429V4.88891H13.3572V19.1482H9.03576V20.2645C9.03511 20.4482 8.98027 20.6273 8.87861 20.7778H13.6283C13.6963 20.7783 13.7638 20.7648 13.8267 20.7379C13.8897 20.711 13.9468 20.6714 13.9947 20.6213C14.0427 20.5712 14.0805 20.5116 14.1059 20.4462C14.1314 20.3807 14.1439 20.3106 14.1429 20.24V3.87446C14.1477 3.72352 14.0974 3.57626 14.0019 3.46219C13.9065 3.34811 13.773 3.27563 13.6283 3.25928ZM8.25004 4.37557C8.19876 4.37557 8.14863 4.3598 8.10599 4.33026C8.06335 4.30071 8.03012 4.25872 8.01049 4.20958C7.99087 4.16045 7.98573 4.10639 7.99574 4.05423C8.00574 4.00207 8.03044 3.95416 8.0667 3.91655C8.10296 3.87895 8.14916 3.85334 8.19946 3.84296C8.24975 3.83259 8.30189 3.83791 8.34927 3.85826C8.39664 3.87862 8.43714 3.91308 8.46563 3.9573C8.49412 4.00152 8.50933 4.0535 8.50933 4.10668C8.50933 4.142 8.50262 4.17696 8.48959 4.20958C8.47656 4.24221 8.45746 4.27185 8.43338 4.29682C8.40931 4.32179 8.38072 4.34159 8.34927 4.35511C8.31781 4.36862 8.28409 4.37557 8.25004 4.37557Z" fill="#303030"/>
<path fill-rule="evenodd" clip-rule="evenodd" d="M5.89289 2.8518V2.44439C5.89289 2.33634 5.93428 2.23271 6.00796 2.15631C6.08163 2.07991 6.18156 2.03698 6.28575 2.03698H17.2857C17.3899 2.03698 17.4899 2.07991 17.5635 2.15631C17.6372 2.23271 17.6786 2.33634 17.6786 2.44439V19.5555C17.6786 19.6636 17.6372 19.7672 17.5635 19.8436C17.4899 19.92 17.3899 19.9629 17.2857 19.9629H14.5357C14.5357 19.9629 14.5357 20.2359 14.5357 20.2848C14.5392 20.3864 14.5144 20.487 14.4642 20.5744C14.4141 20.6618 14.3407 20.7324 14.2529 20.7777H17.2857C17.5983 20.7777 17.8981 20.649 18.1191 20.4197C18.3401 20.1905 18.4643 19.8797 18.4643 19.5555V2.44439C18.4643 2.12024 18.3401 1.80936 18.1191 1.58015C17.8981 1.35094 17.5983 1.22217 17.2857 1.22217H6.28575C5.97317 1.22217 5.6734 1.35094 5.45237 1.58015C5.23135 1.80936 5.10718 2.12024 5.10718 2.44439V2.8518H5.89289Z" fill="#303030"/>
<path fill-rule="evenodd" clip-rule="evenodd" d="M8.14786 8.14819H0.498929C0.368207 8.15126 0.243599 8.2062 0.150777 8.30171C0.057955 8.39721 0.00398979 8.52599 0 8.66153L0 20.2889C0.00608907 20.4215 0.061454 20.5465 0.154478 20.6376C0.247501 20.7288 0.370953 20.779 0.498929 20.7778H8.14786C8.27759 20.7728 8.40069 20.7171 8.49248 20.6219C8.58428 20.5267 8.63799 20.399 8.64286 20.2645V8.66153C8.63891 8.52668 8.5855 8.39847 8.49351 8.30307C8.40152 8.20768 8.27789 8.15228 8.14786 8.14819ZM4.30179 8.65745C4.3352 8.65745 4.36786 8.66773 4.39564 8.68698C4.42342 8.70623 4.44507 8.73359 4.45786 8.7656C4.47064 8.79761 4.47399 8.83283 4.46747 8.86682C4.46095 8.9008 4.44486 8.93201 4.42124 8.95651C4.39761 8.98101 4.36751 8.9977 4.33474 9.00446C4.30197 9.01122 4.26801 9.00775 4.23714 8.99449C4.20627 8.98123 4.17989 8.95878 4.16133 8.92997C4.14277 8.90116 4.13286 8.86729 4.13286 8.83264C4.13285 8.78687 4.1501 8.74292 4.18094 8.71018C4.21177 8.67744 4.25374 8.65852 4.29786 8.65745H4.30179ZM4.32143 20.5741C4.24373 20.5741 4.16777 20.5502 4.10317 20.5055C4.03856 20.4607 3.98821 20.3971 3.95848 20.3226C3.92874 20.2482 3.92096 20.1663 3.93612 20.0872C3.95128 20.0082 3.98869 19.9356 4.04364 19.8786C4.09858 19.8217 4.16858 19.7829 4.24479 19.7671C4.32099 19.7514 4.39998 19.7595 4.47177 19.7903C4.54355 19.8212 4.60491 19.8734 4.64808 19.9404C4.69125 20.0074 4.71429 20.0861 4.71429 20.1667C4.71429 20.2748 4.6729 20.3784 4.59922 20.4548C4.52555 20.5312 4.42562 20.5741 4.32143 20.5741ZM8.25 19.5556H0.392857V9.37042H8.25V19.5556Z" fill="#303030"/>
</g>
<defs>
<clipPath id="clip0">
<rect width="18.8571" height="22" fill="white"/>
</clipPath>
</defs>
</svg>
