<svg width="21" height="22" viewBox="0 0 21 22" fill="none" xmlns="http://www.w3.org/2000/svg">
<g clip-path="url(#clip0)">
<path d="M17.0875 18.8955C16.9799 18.8955 16.8756 18.9324 16.7924 18.9999C16.7091 19.0675 16.6522 19.1615 16.6312 19.266C16.6102 19.3705 16.6264 19.4789 16.6771 19.5728C16.7279 19.6668 16.81 19.7404 16.9094 19.7811C17.0089 19.8219 17.1195 19.8273 17.2226 19.7964C17.3256 19.7655 17.4146 19.7002 17.4744 19.6116C17.5342 19.5231 17.5611 19.4167 17.5506 19.3107C17.54 19.2047 17.4927 19.1056 17.4165 19.0303C17.3293 18.944 17.2109 18.8955 17.0875 18.8955ZM17.0875 20.0647C16.945 20.0647 16.8057 20.0229 16.6872 19.9446C16.5687 19.8662 16.4763 19.7549 16.4218 19.6246C16.3673 19.4943 16.353 19.351 16.3808 19.2127C16.4086 19.0744 16.4772 18.9473 16.578 18.8476C16.6788 18.7479 16.8072 18.68 16.947 18.6525C17.0867 18.625 17.2316 18.6391 17.3633 18.6931C17.495 18.747 17.6075 18.8384 17.6867 18.9557C17.7659 19.0729 17.8081 19.2107 17.8081 19.3518C17.8081 19.5408 17.7322 19.7222 17.5971 19.8559C17.4619 19.9896 17.2786 20.0647 17.0875 20.0647ZM18.014 5.19434H16.1611C16.1338 5.19434 16.1076 5.18361 16.0883 5.16451C16.069 5.14541 16.0581 5.11951 16.0581 5.09249C16.0581 5.06548 16.069 5.03957 16.0883 5.02047C16.1076 5.00137 16.1338 4.99064 16.1611 4.99064H18.014C18.0413 4.99064 18.0675 5.00137 18.0868 5.02047C18.1061 5.03957 18.1169 5.06548 18.1169 5.09249C18.1169 5.11951 18.1061 5.14541 18.0868 5.16451C18.0675 5.18361 18.0413 5.19434 18.014 5.19434ZM19.764 4.07397H15.6464V6.11101H20.5875V18.3332H15.6464V19.148C15.6523 19.3812 15.6041 19.6125 15.5056 19.8244C15.4071 20.0363 15.2609 20.223 15.0781 20.3703H19.764C20.0916 20.3703 20.4058 20.2415 20.6375 20.0123C20.8692 19.7831 20.9993 19.4722 20.9993 19.148V5.2962C20.9993 4.97204 20.8692 4.66117 20.6375 4.43196C20.4058 4.20274 20.0916 4.07397 19.764 4.07397Z" fill="#303030"/>
<path d="M9.05882 19.1574C9.04855 19.3793 8.95062 19.5884 8.78611 19.7397C8.62159 19.8909 8.40363 19.9722 8.17914 19.9661H1.29144C1.06695 19.9722 0.849 19.8909 0.684481 19.7397C0.519963 19.5884 0.422032 19.3793 0.411765 19.1574V2.0279C0.422032 1.80593 0.519963 1.59683 0.684481 1.44558C0.849 1.29434 1.06695 1.21304 1.29144 1.21919H2.36765C2.42328 1.2178 2.47719 1.23831 2.51755 1.27621C2.5579 1.31412 2.5814 1.36633 2.58289 1.42136V1.62356C2.58585 1.73363 2.63286 1.83804 2.71357 1.91386C2.79428 1.98967 2.90211 2.03069 3.01337 2.0279H6.45722C6.56848 2.03069 6.6763 1.98967 6.75702 1.91386C6.83773 1.83804 6.88473 1.73363 6.8877 1.62356V1.42137C6.88918 1.36633 6.91268 1.31413 6.95304 1.27622C6.9934 1.23832 7.04731 1.21781 7.10294 1.2192H8.17914C8.40363 1.21305 8.62158 1.29434 8.7861 1.44559C8.95062 1.59683 9.04855 1.80593 9.05882 2.0279V19.1574ZM4.31438 1.3122H5.15621C5.16988 1.3118 5.1835 1.31412 5.19625 1.31902C5.209 1.32392 5.22063 1.3313 5.23044 1.34072C5.24026 1.35015 5.24806 1.36143 5.25339 1.37389C5.25872 1.38636 5.26146 1.39976 5.26146 1.41329C5.26146 1.42682 5.25872 1.44022 5.25339 1.45268C5.24806 1.46515 5.24026 1.47643 5.23044 1.48586C5.22063 1.49528 5.209 1.50266 5.19625 1.50756C5.1835 1.51246 5.16988 1.51478 5.15621 1.51438H4.31438C4.30071 1.51478 4.28709 1.51246 4.27434 1.50756C4.26159 1.50266 4.24996 1.49528 4.24015 1.48586C4.23033 1.47643 4.22253 1.46515 4.2172 1.45268C4.21187 1.44022 4.20912 1.42682 4.20912 1.41329C4.20912 1.39976 4.21187 1.38636 4.2172 1.37389C4.22253 1.36143 4.23033 1.35015 4.24015 1.34072C4.24996 1.3313 4.26159 1.32392 4.27434 1.31902C4.28709 1.31412 4.30071 1.3118 4.31438 1.3122ZM5.6108 1.27985C5.6373 1.28063 5.66298 1.28911 5.68464 1.30424C5.7063 1.31938 5.72297 1.34049 5.73257 1.36494C5.74218 1.38939 5.74428 1.4161 5.73863 1.44174C5.73298 1.46737 5.71982 1.49078 5.7008 1.50906C5.68178 1.52733 5.65773 1.53966 5.63167 1.54449C5.60561 1.54932 5.57869 1.54645 5.55427 1.53624C5.52985 1.52602 5.50901 1.50891 5.49436 1.48704C5.47971 1.46518 5.4719 1.43952 5.4719 1.41329C5.47244 1.37737 5.48738 1.34314 5.51342 1.31812C5.53947 1.2931 5.57449 1.27933 5.6108 1.27985ZM8.17914 0.814853H1.29144C0.957669 0.806492 0.634188 0.929546 0.392045 1.15699C0.149903 1.38443 0.00889798 1.69767 0 2.0279L0 19.1574C0.00889798 19.4876 0.149903 19.8008 0.392045 20.0283C0.634188 20.2557 0.957669 20.3788 1.29144 20.3704H8.17914C8.51292 20.3788 8.8364 20.2557 9.07854 20.0283C9.32068 19.8008 9.46169 19.4876 9.47059 19.1574V2.0279C9.46169 1.69767 9.32068 1.38443 9.07854 1.15699C8.8364 0.929546 8.51292 0.806492 8.17914 0.814853Z" fill="#303030"/>
<path d="M9.31042 20.368H14.0285C14.3405 20.3731 14.642 20.2565 14.8679 20.0434C15.0938 19.8304 15.2259 19.538 15.2357 19.2294V3.56041C15.2248 3.25416 15.0916 2.96467 14.8653 2.75546C14.639 2.54626 14.3381 2.43442 14.0285 2.44447H9.88278V3.66669H12.3159C12.4198 3.66846 12.5202 3.62976 12.5955 3.55895C12.6707 3.48814 12.7149 3.39089 12.7183 3.28818V3.03707C12.7203 2.98613 12.7425 2.93804 12.7802 2.90332C12.818 2.86861 12.8681 2.85011 12.9195 2.85188H14.0285C14.2344 2.84477 14.4348 2.91876 14.5857 3.05763C14.7366 3.19649 14.8256 3.38888 14.8333 3.59262V19.1972C14.8268 19.4035 14.7389 19.5991 14.5885 19.7422C14.4381 19.8853 14.2371 19.9646 14.0285 19.963H9.65219C9.56064 20.115 9.44528 20.2517 9.31042 20.368ZM10.4519 2.95609H11.266C11.2933 2.95609 11.3195 2.96682 11.3388 2.98592C11.3581 3.00502 11.3689 3.03092 11.3689 3.05794C11.3689 3.08495 11.3581 3.11086 11.3388 3.12996C11.3195 3.14906 11.2933 3.15979 11.266 3.15979H10.4519C10.4246 3.15979 10.3984 3.14906 10.3791 3.12996C10.3598 3.11086 10.349 3.08495 10.349 3.05794C10.349 3.03092 10.3598 3.00502 10.3791 2.98592C10.3984 2.96682 10.4246 2.95609 10.4519 2.95609ZM11.7056 2.92349C11.7325 2.92319 11.7589 2.93081 11.7815 2.9454C11.804 2.95998 11.8217 2.98087 11.8322 3.00541C11.8427 3.02995 11.8457 3.05703 11.8406 3.08321C11.8355 3.10939 11.8227 3.13349 11.8038 3.15244C11.7848 3.1714 11.7606 3.18436 11.7342 3.18967C11.7078 3.19499 11.6804 3.19242 11.6555 3.18229C11.6306 3.17216 11.6093 3.15493 11.5943 3.13279C11.5793 3.11065 11.5712 3.08459 11.5712 3.05794C11.5711 3.04038 11.5745 3.02298 11.5812 3.00672C11.5879 2.99047 11.5978 2.97567 11.6103 2.96319C11.6227 2.9507 11.6376 2.94077 11.6539 2.93396C11.6703 2.92715 11.6878 2.92359 11.7056 2.92349V2.92349Z" fill="#303030"/>
</g>
<defs>
<clipPath id="clip0">
<rect width="21" height="22" fill="white"/>
</clipPath>
</defs>
</svg>
