<svg width="164" height="40" viewBox="0 0 164 40" fill="none" xmlns="http://www.w3.org/2000/svg">
<rect width="40" height="40" rx="6" fill="#6839CF"/>
<path d="M52.696 30H53.571C58.2045 30 59.3182 26.5597 59.5866 20.017L59.9048 12.2415H66.8551V30H69.8878V9.63636H57.0114L56.6634 19.2017C56.4446 25.098 55.7287 27.2557 53.2926 27.3153L52.696 27.3352V30ZM80.5568 30.3082C84.8622 30.3082 87.6761 27.1562 87.6761 22.4332C87.6761 17.6804 84.8622 14.5284 80.5568 14.5284C76.2514 14.5284 73.4375 17.6804 73.4375 22.4332C73.4375 27.1562 76.2514 30.3082 80.5568 30.3082ZM80.5668 27.8125C77.7528 27.8125 76.4403 25.3565 76.4403 22.4233C76.4403 19.5 77.7528 17.0142 80.5668 17.0142C83.3608 17.0142 84.6733 19.5 84.6733 22.4233C84.6733 25.3565 83.3608 27.8125 80.5668 27.8125ZM100.759 14.7273H90.9947V30H93.9279V17.2926H100.759V14.7273ZM109.623 30.3082C113.929 30.3082 116.743 27.1562 116.743 22.4332C116.743 17.6804 113.929 14.5284 109.623 14.5284C105.318 14.5284 102.504 17.6804 102.504 22.4332C102.504 27.1562 105.318 30.3082 109.623 30.3082ZM109.633 27.8125C106.819 27.8125 105.507 25.3565 105.507 22.4233C105.507 19.5 106.819 17.0142 109.633 17.0142C112.427 17.0142 113.74 19.5 113.74 22.4233C113.74 25.3565 112.427 27.8125 109.633 27.8125ZM118.222 17.2926H123.223V30H126.126V17.2926H131.108V14.7273H118.222V17.2926ZM137.166 25.8338V14.7273H134.252V30H137.484L144.186 18.8835V30H147.099V14.7273H143.897L137.166 25.8338ZM151.096 30H153.99V17.2926H160.642V30H163.555V14.7273H151.096V30Z" fill="#0C2146"/>
</svg>
