<svg width="29" height="22" viewBox="0 0 29 22" fill="none" xmlns="http://www.w3.org/2000/svg">
<g clip-path="url(#clip0)">
<path d="M17.1111 19.9629V11.6111C17.1111 11.22 16.8993 11 16.5 11H2.24074C1.84148 11 1.62963 11.2037 1.62963 11.6111V19.9629H0C0.0203704 19.9996 0.052963 20.0933 0.0855556 20.0933C0.0855556 20.0933 0.928889 20.6026 1.97593 20.6718C3.02296 20.7451 4.07 20.7818 4.07407 20.7777H9.37037H14.6667C14.6667 20.7777 15.6281 20.7451 16.6752 20.6759C17.7222 20.6066 18.5656 20.0974 18.5656 20.0974C18.5981 20.0974 18.7204 20.0037 18.7448 19.967H17.1111V19.9629ZM2.44444 11.8148H16.2963V19.9629H2.44444V11.8148ZM21.5722 20.7777C21.5804 20.7737 21.5844 20.7737 21.5885 20.7696C21.6456 20.7533 21.6863 20.7003 21.6863 20.6392C21.6863 20.5618 21.6252 20.5007 21.5437 20.5007C21.5315 20.5007 21.5274 20.5007 21.5152 20.5007C20.9611 20.5374 20.4437 20.1666 20.3215 19.6085L19.963 17.9259H27.8952C28.1804 17.9259 28.5185 17.5877 28.5185 17.3026V5.10478C28.5185 4.81959 28.1804 4.48145 27.8952 4.48145H9.5863C9.30111 4.48145 8.96296 4.81959 8.96296 5.10478L8.97111 10.5926H9.77778V5.29626H27.7037V15.4814H17.5185V17.9259V19.5555H19.1481V19.9629C19.1319 20.5903 17.9259 20.7777 17.9259 20.7777H21.5722ZM19.1278 17.0418C19.1156 17.0663 19.1033 17.0907 19.0911 17.1111C19.0789 17.1314 19.0626 17.1518 19.0504 17.1681C19.0381 17.1844 19.0259 17.1966 19.0178 17.2007C19.0015 17.2129 18.9893 17.2211 18.973 17.2292C18.9607 17.2374 18.9444 17.2414 18.9281 17.2414C18.92 17.2414 18.9037 17.2374 18.8915 17.2333C18.8752 17.2292 18.863 17.2251 18.8467 17.2211C18.8304 17.217 18.8141 17.2129 18.8019 17.2048C18.7856 17.2007 18.7733 17.2007 18.7611 17.2007C18.7489 17.2007 18.7326 17.2007 18.7163 17.2089C18.7 17.2129 18.6837 17.217 18.6674 17.2251C18.6511 17.2292 18.6348 17.2333 18.6226 17.2414C18.6104 17.2455 18.5981 17.2496 18.59 17.2496C18.5778 17.2496 18.5656 17.2455 18.5533 17.2414C18.5411 17.2374 18.5289 17.2292 18.5167 17.2211C18.5044 17.2129 18.4922 17.1966 18.4759 17.1803C18.4596 17.164 18.4474 17.1437 18.427 17.1192C18.4107 17.0948 18.3985 17.0703 18.3822 17.0418C18.37 17.0133 18.3578 16.9848 18.3496 16.9522C18.3415 16.9237 18.3333 16.8911 18.3293 16.8626C18.3252 16.83 18.3211 16.8014 18.3211 16.7729C18.3211 16.7281 18.3293 16.6874 18.3415 16.6507C18.3537 16.614 18.3741 16.5814 18.3944 16.5529C18.4189 16.5244 18.4433 16.504 18.4759 16.4877C18.5085 16.4714 18.5411 16.4633 18.5778 16.4633C18.6063 16.4633 18.6348 16.4714 18.6715 16.4877C18.7081 16.504 18.7326 16.5122 18.7448 16.5122C18.7489 16.5122 18.757 16.5081 18.7693 16.504C18.7815 16.5 18.8019 16.4918 18.8263 16.4837C18.8507 16.4755 18.867 16.4714 18.8833 16.4674C18.8996 16.4633 18.9119 16.4633 18.9281 16.4633C18.9689 16.4633 19.0056 16.4714 19.0422 16.4918C19.0789 16.5122 19.1074 16.5366 19.1278 16.5692C19.0911 16.5937 19.0626 16.6222 19.0422 16.6548C19.0259 16.6874 19.0178 16.724 19.0178 16.7689C19.0178 16.8137 19.03 16.8544 19.0544 16.8951C19.0789 16.9318 19.1115 16.9603 19.1563 16.9807C19.1481 16.9889 19.1359 17.0174 19.1278 17.0418ZM18.7407 16.4226C18.7407 16.3981 18.7448 16.3737 18.757 16.3451C18.7693 16.3207 18.7815 16.2963 18.8019 16.2759C18.8181 16.2555 18.8426 16.2392 18.867 16.227C18.8915 16.2148 18.92 16.2066 18.9444 16.2066C18.9444 16.2107 18.9444 16.2148 18.9444 16.2189V16.2311C18.9444 16.2555 18.9404 16.284 18.9281 16.3126C18.9159 16.337 18.9037 16.3614 18.8833 16.3818C18.867 16.4022 18.8467 16.4185 18.8222 16.4307C18.7978 16.4429 18.7774 16.4511 18.753 16.4511C18.7448 16.4511 18.7367 16.4511 18.7367 16.447C18.7407 16.4348 18.7407 16.4266 18.7407 16.4226Z" fill="#303030"/>
</g>
<defs>
<clipPath id="clip0">
<rect width="28.5185" height="22" fill="white"/>
</clipPath>
</defs>
</svg>
