<svg width="29" height="17" viewBox="0 0 29 17" fill="none" xmlns="http://www.w3.org/2000/svg">
<path d="M17.1111 15.9629V7.61107C17.1111 7.21996 16.8993 6.99996 16.5 6.99996H2.24074C1.84148 6.99996 1.62963 7.20367 1.62963 7.61107V15.9629H0C0.0203704 15.9996 0.052963 16.0933 0.0855556 16.0933C0.0855556 16.0933 0.928889 16.6026 1.97593 16.6718C3.02296 16.7451 4.07 16.7818 4.07407 16.7777H9.37037H14.6667C14.6667 16.7777 15.6281 16.7451 16.6752 16.6759C17.7222 16.6066 18.5656 16.0974 18.5656 16.0974C18.5981 16.0974 18.7204 16.0037 18.7448 15.967H17.1111V15.9629ZM2.44444 7.81478H16.2963V15.9629H2.44444V7.81478ZM21.5722 16.7777C21.5804 16.7737 21.5844 16.7737 21.5885 16.7696C21.6456 16.7533 21.6863 16.7003 21.6863 16.6392C21.6863 16.5618 21.6252 16.5007 21.5437 16.5007C21.5315 16.5007 21.5274 16.5007 21.5152 16.5007C20.9611 16.5374 20.4437 16.1666 20.3215 15.6085L19.963 13.9259H27.8952C28.1804 13.9259 28.5185 13.5877 28.5185 13.3026V1.10478C28.5185 0.819593 28.1804 0.481445 27.8952 0.481445H9.5863C9.30111 0.481445 8.96296 0.819593 8.96296 1.10478L8.97111 6.59256H9.77778V1.29626H27.7037V11.4814H17.5185V13.9259V15.5555H19.1481V15.9629C19.1319 16.5903 17.9259 16.7777 17.9259 16.7777H21.5722ZM19.1278 13.0418C19.1156 13.0663 19.1033 13.0907 19.0911 13.1111C19.0789 13.1314 19.0626 13.1518 19.0504 13.1681C19.0381 13.1844 19.0259 13.1966 19.0178 13.2007C19.0015 13.2129 18.9893 13.2211 18.973 13.2292C18.9607 13.2374 18.9444 13.2414 18.9281 13.2414C18.92 13.2414 18.9037 13.2374 18.8915 13.2333C18.8752 13.2292 18.863 13.2251 18.8467 13.2211C18.8304 13.217 18.8141 13.2129 18.8019 13.2048C18.7856 13.2007 18.7733 13.2007 18.7611 13.2007C18.7489 13.2007 18.7326 13.2007 18.7163 13.2089C18.7 13.2129 18.6837 13.217 18.6674 13.2251C18.6511 13.2292 18.6348 13.2333 18.6226 13.2414C18.6104 13.2455 18.5981 13.2496 18.59 13.2496C18.5778 13.2496 18.5656 13.2455 18.5533 13.2414C18.5411 13.2374 18.5289 13.2292 18.5167 13.2211C18.5044 13.2129 18.4922 13.1966 18.4759 13.1803C18.4596 13.164 18.4474 13.1437 18.427 13.1192C18.4107 13.0948 18.3985 13.0703 18.3822 13.0418C18.37 13.0133 18.3578 12.9848 18.3496 12.9522C18.3415 12.9237 18.3333 12.8911 18.3293 12.8626C18.3252 12.83 18.3211 12.8014 18.3211 12.7729C18.3211 12.7281 18.3293 12.6874 18.3415 12.6507C18.3537 12.614 18.3741 12.5814 18.3944 12.5529C18.4189 12.5244 18.4433 12.504 18.4759 12.4877C18.5085 12.4714 18.5411 12.4633 18.5778 12.4633C18.6063 12.4633 18.6348 12.4714 18.6715 12.4877C18.7081 12.504 18.7326 12.5122 18.7448 12.5122C18.7489 12.5122 18.757 12.5081 18.7693 12.504C18.7815 12.5 18.8019 12.4918 18.8263 12.4837C18.8507 12.4755 18.867 12.4714 18.8833 12.4674C18.8996 12.4633 18.9119 12.4633 18.9281 12.4633C18.9689 12.4633 19.0056 12.4714 19.0422 12.4918C19.0789 12.5122 19.1074 12.5366 19.1278 12.5692C19.0911 12.5937 19.0626 12.6222 19.0422 12.6548C19.0259 12.6874 19.0178 12.724 19.0178 12.7689C19.0178 12.8137 19.03 12.8544 19.0544 12.8951C19.0789 12.9318 19.1115 12.9603 19.1563 12.9807C19.1481 12.9889 19.1359 13.0174 19.1278 13.0418ZM18.7407 12.4226C18.7407 12.3981 18.7448 12.3737 18.757 12.3451C18.7693 12.3207 18.7815 12.2963 18.8019 12.2759C18.8181 12.2555 18.8426 12.2392 18.867 12.227C18.8915 12.2148 18.92 12.2066 18.9444 12.2066C18.9444 12.2107 18.9444 12.2148 18.9444 12.2189V12.2311C18.9444 12.2555 18.9404 12.284 18.9281 12.3126C18.9159 12.337 18.9037 12.3614 18.8833 12.3818C18.867 12.4022 18.8467 12.4185 18.8222 12.4307C18.7978 12.4429 18.7774 12.4511 18.753 12.4511C18.7448 12.4511 18.7367 12.4511 18.7367 12.447C18.7407 12.4348 18.7407 12.4266 18.7407 12.4226Z" fill="#303030"/>
</svg>
