<svg width="57" height="57" viewBox="0 0 57 57" fill="none" xmlns="http://www.w3.org/2000/svg">
<g clip-path="url(#clip0)">
<path d="M52.7125 15.4654L52.7107 15.421C52.6859 14.8735 52.6694 14.2942 52.6594 13.6498C52.6129 10.5069 50.1145 7.90724 46.9713 7.73156C40.4177 7.36583 35.3479 5.22885 31.0162 1.00666L30.9792 0.971435C29.5663 -0.324056 27.435 -0.324056 26.0216 0.971435L25.9847 1.00666C21.6529 5.22885 16.5831 7.36583 10.0296 7.73199C6.88672 7.90725 4.38793 10.5069 4.3414 13.6502C4.33184 14.2903 4.31488 14.8696 4.29009 15.421L4.28748 15.5241C4.16006 22.2068 4.00177 30.5238 6.78409 38.0727C8.31398 42.224 10.631 45.8326 13.6703 48.7989C17.1319 52.177 21.6659 54.8589 27.1462 56.7697C27.3245 56.8319 27.5098 56.8824 27.6985 56.9202C27.9646 56.9732 28.2325 56.9998 28.5004 56.9998C28.7683 56.9998 29.0366 56.9732 29.3023 56.9202C29.4911 56.8824 29.6776 56.8315 29.8568 56.7689C35.3305 54.8545 39.8598 52.1714 43.3183 48.7937C46.3563 45.8265 48.6734 42.2171 50.2045 38.0649C52.9973 30.4933 52.8395 22.1607 52.7125 15.4654ZM47.0665 36.9077C44.132 44.8642 38.1416 50.3284 28.7531 53.6117C28.7196 53.623 28.6839 53.633 28.647 53.6404C28.55 53.6595 28.4513 53.6595 28.353 53.6399C28.3165 53.6325 28.2808 53.623 28.2477 53.6117C18.8492 50.3344 12.8549 44.8733 9.92258 36.9164C7.35813 29.958 7.50337 22.3233 7.63166 15.588L7.63253 15.5506C7.65862 14.9718 7.67602 14.3656 7.68559 13.6993C7.70646 12.3038 8.818 11.1492 10.2161 11.0714C13.9247 10.8644 17.1828 10.1477 20.1765 8.88049C23.1662 7.61501 25.8216 5.83115 28.2934 3.42717C28.4191 3.32106 28.5822 3.32063 28.7074 3.42717C31.1797 5.83115 33.835 7.61501 36.8243 8.88049C39.818 10.1477 43.0761 10.8644 46.7851 11.0714C48.1833 11.1492 49.2948 12.3038 49.3152 13.6998C49.3252 14.3695 49.3426 14.9757 49.3687 15.5506C49.4966 22.2938 49.6383 29.9345 47.0665 36.9077Z" fill="#6839CF"/>
<path d="M28.4994 14.2957C20.6664 14.2957 14.2942 20.6683 14.2942 28.5009C14.2942 36.3338 20.6664 42.7065 28.4994 42.7065C36.3319 42.7065 42.7046 36.3338 42.7046 28.5009C42.7046 20.6683 36.3319 14.2957 28.4994 14.2957ZM28.4994 39.3614C22.5107 39.3614 17.6388 34.4895 17.6388 28.5009C17.6388 22.5122 22.5107 17.6403 28.4994 17.6403C34.4876 17.6403 39.3595 22.5122 39.3595 28.5009C39.3595 34.4895 34.4876 39.3614 28.4994 39.3614Z" fill="#6839CF"/>
<path d="M32.5821 24.0907L25.9842 30.6887L24.1933 28.8979C23.5402 28.2447 22.4812 28.2447 21.8281 28.8979C21.1753 29.551 21.1753 30.61 21.8281 31.2627L24.8017 34.2364C25.1283 34.563 25.5562 34.7261 25.9842 34.7261C26.4121 34.7261 26.84 34.563 27.1666 34.2364L34.9474 26.4556C35.6001 25.8024 35.6001 24.7435 34.9474 24.0907C34.2942 23.4371 33.2353 23.4371 32.5821 24.0907Z" fill="#6839CF"/>
</g>
<defs>
<clipPath id="clip0">
<rect width="57" height="57" fill="white"/>
</clipPath>
</defs>
</svg>
