<svg width="26" height="26" viewBox="0 0 26 26" fill="none" xmlns="http://www.w3.org/2000/svg">
<path d="M7.58331 19.5001C6.39165 19.5001 5.42748 20.4751 5.42748 21.6667C5.42748 22.8584 6.39165 23.8334 7.58331 23.8334C8.77498 23.8334 9.74998 22.8584 9.74998 21.6667C9.74998 20.4751 8.77498 19.5001 7.58331 19.5001ZM1.08331 3.25008C1.08331 3.84591 1.57081 4.33341 2.16665 4.33341H3.24998L7.14998 12.5559L5.68748 15.1992C4.89665 16.6509 5.93665 18.4167 7.58331 18.4167H19.5C20.0958 18.4167 20.5833 17.9292 20.5833 17.3334C20.5833 16.7376 20.0958 16.2501 19.5 16.2501H7.58331L8.77498 14.0834H16.8458C17.6583 14.0834 18.3733 13.6392 18.7416 12.9676L22.62 5.93675C23.0208 5.22175 22.5008 4.33341 21.6775 4.33341H5.64415L4.91831 2.78425C4.74498 2.40508 4.35498 2.16675 3.94331 2.16675H2.16665C1.57081 2.16675 1.08331 2.65425 1.08331 3.25008ZM18.4166 19.5001C17.225 19.5001 16.2608 20.4751 16.2608 21.6667C16.2608 22.8584 17.225 23.8334 18.4166 23.8334C19.6083 23.8334 20.5833 22.8584 20.5833 21.6667C20.5833 20.4751 19.6083 19.5001 18.4166 19.5001Z" fill="white"/>
</svg>
