<svg width="65" height="65" viewBox="0 0 65 65" fill="none" xmlns="http://www.w3.org/2000/svg">
<circle cx="32.5" cy="32.5" r="32.5" fill="#F7F7FF"/>
<path d="M32.5 32.5C37.3804 32.5 41.3333 28.5471 41.3333 23.6667C41.3333 18.7863 37.3804 14.8334 32.5 14.8334C27.6196 14.8334 23.6666 18.7863 23.6666 23.6667C23.6666 28.5471 27.6196 32.5 32.5 32.5ZM32.5 36.9167C26.6037 36.9167 14.8333 39.8759 14.8333 45.75V47.9584C14.8333 49.173 15.8271 50.1667 17.0416 50.1667H47.9583C49.1729 50.1667 50.1666 49.173 50.1666 47.9584V45.75C50.1666 39.8759 38.3962 36.9167 32.5 36.9167Z" fill="white"/>
</svg>
