<svg width="95" height="28" viewBox="0 0 95 28" fill="none" xmlns="http://www.w3.org/2000/svg">
<rect width="95" height="28" rx="4" fill="white"/>
<path d="M5.12553 24H8.09854V8.72727H5.12553V24ZM6.62695 6.37074C7.6511 6.37074 8.50621 5.57528 8.50621 4.60085C8.50621 3.62642 7.6511 2.82102 6.62695 2.82102C5.59286 2.82102 4.74769 3.62642 4.74769 4.60085C4.74769 5.57528 5.59286 6.37074 6.62695 6.37074ZM23.4434 8.98579H26.4064C26.3169 5.72443 23.4334 3.35795 19.2971 3.35795C15.2104 3.35795 12.0783 5.6946 12.0783 9.20454C12.0783 12.0384 14.1067 13.6989 17.378 14.5838L19.7843 15.2401C21.9618 15.8168 23.6422 16.5327 23.6422 18.3423C23.6422 20.331 21.7431 21.6435 19.128 21.6435C16.7615 21.6435 14.7928 20.5895 14.6138 18.3722H11.5314C11.7303 22.0611 14.584 24.3381 19.1479 24.3381C23.9306 24.3381 26.6848 21.8224 26.6848 18.3722C26.6848 14.7031 23.4135 13.2812 20.8283 12.6449L18.8397 12.1278C17.2488 11.7202 15.1309 10.9744 15.1408 9.02557C15.1408 7.29545 16.7218 6.01278 19.2275 6.01278C21.5641 6.01278 23.2246 7.10653 23.4434 8.98579ZM30.1177 24H33.0907V14.5838C33.0907 12.5256 34.5325 11.0938 36.2228 11.0938C37.8734 11.0938 39.0169 12.1875 39.0169 13.848V24H41.9799V14.2656C41.9799 12.4261 43.1035 11.0938 45.0424 11.0938C46.6135 11.0938 47.9061 11.9688 47.9061 14.0369V24H50.8791V13.7585C50.8791 10.2685 48.9302 8.52841 46.166 8.52841C43.9686 8.52841 42.318 9.58239 41.5822 11.2131H41.4231C40.7569 9.54261 39.3549 8.52841 37.3166 8.52841C35.2981 8.52841 33.7967 9.53267 33.1603 11.2131H32.9714V8.72727H30.1177V24ZM59.3084 24.3381C61.834 24.3381 63.2559 23.0554 63.8226 21.9119H63.9419V24H66.8453V13.858C66.8453 9.41335 63.3453 8.52841 60.9192 8.52841C58.155 8.52841 55.6096 9.64204 54.6152 12.4261L57.4093 13.0625C57.8468 11.9787 58.9604 10.9347 60.959 10.9347C62.878 10.9347 63.8624 11.9389 63.8624 13.669V13.7386C63.8624 14.8224 62.7488 14.8026 60.0044 15.1207C57.111 15.4588 54.1479 16.2145 54.1479 19.6847C54.1479 22.6875 56.405 24.3381 59.3084 24.3381ZM59.9547 21.9517C58.2743 21.9517 57.0613 21.196 57.0613 19.7244C57.0613 18.1335 58.4732 17.5668 60.1934 17.3381C61.1578 17.2088 63.4448 16.9503 63.8723 16.5227V18.4915C63.8723 20.3011 62.4306 21.9517 59.9547 21.9517ZM70.8052 24H73.7782V14.6733C73.7782 12.6747 75.3194 11.233 77.4274 11.233C78.0439 11.233 78.7399 11.3423 78.9785 11.4119V8.56818C78.6802 8.52841 78.0936 8.49858 77.7157 8.49858C75.926 8.49858 74.3947 9.51278 73.8379 11.1534H73.6788V8.72727H70.8052V24ZM89.5829 8.72727H86.4508V5.06818H83.4778V8.72727H81.2406V11.1136H83.4778V20.1321C83.4679 22.9062 85.5858 24.2486 87.9324 24.1989C88.877 24.1889 89.5133 24.0099 89.8613 23.8807L89.3244 21.4247C89.1255 21.4645 88.7576 21.554 88.2804 21.554C87.3159 21.554 86.4508 21.2358 86.4508 19.5156V11.1136H89.5829V8.72727Z" fill="#0C2146"/>
<circle cx="6.5" cy="4.5" r="2.5" fill="#6839CF"/>
</svg>
