<svg width="88" height="28" viewBox="0 0 88 28" fill="none" xmlns="http://www.w3.org/2000/svg">
<path d="M1.99858 24H4.97159V8.72727H1.99858V24ZM3.5 6.37074C4.52415 6.37074 5.37926 5.57528 5.37926 4.60085C5.37926 3.62642 4.52415 2.82102 3.5 2.82102C2.46591 2.82102 1.62074 3.62642 1.62074 4.60085C1.62074 5.57528 2.46591 6.37074 3.5 6.37074ZM20.3164 8.98579H23.2795C23.19 5.72443 20.3065 3.35795 16.1701 3.35795C12.0835 3.35795 8.95135 5.6946 8.95135 9.20454C8.95135 12.0384 10.9798 13.6989 14.2511 14.5838L16.6573 15.2401C18.8349 15.8168 20.5153 16.5327 20.5153 18.3423C20.5153 20.331 18.6161 21.6435 16.0011 21.6435C13.6346 21.6435 11.6658 20.5895 11.4869 18.3722H8.40447C8.60334 22.0611 11.457 24.3381 16.021 24.3381C20.8036 24.3381 23.5579 21.8224 23.5579 18.3722C23.5579 14.7031 20.2866 13.2812 17.7013 12.6449L15.7127 12.1278C14.1218 11.7202 12.0039 10.9744 12.0138 9.02557C12.0138 7.29545 13.5948 6.01278 16.1005 6.01278C18.4371 6.01278 20.0977 7.10653 20.3164 8.98579ZM26.9908 24H29.9638V14.5838C29.9638 12.5256 31.4055 11.0938 33.0959 11.0938C34.7464 11.0938 35.8899 12.1875 35.8899 13.848V24H38.853V14.2656C38.853 12.4261 39.9766 11.0938 41.9155 11.0938C43.4865 11.0938 44.7791 11.9688 44.7791 14.0369V24H47.7521V13.7585C47.7521 10.2685 45.8033 8.52841 43.0391 8.52841C40.8416 8.52841 39.1911 9.58239 38.4553 11.2131H38.2962C37.63 9.54261 36.228 8.52841 34.1896 8.52841C32.1712 8.52841 30.6697 9.53267 30.0334 11.2131H29.8445V8.72727H26.9908V24ZM56.1815 24.3381C58.707 24.3381 60.1289 23.0554 60.6957 21.9119H60.815V24H63.7184V13.858C63.7184 9.41335 60.2184 8.52841 57.7923 8.52841C55.0281 8.52841 52.4826 9.64204 51.4883 12.4261L54.2823 13.0625C54.7198 11.9787 55.8335 10.9347 57.832 10.9347C59.7511 10.9347 60.7354 11.9389 60.7354 13.669V13.7386C60.7354 14.8224 59.6218 14.8026 56.8775 15.1207C53.984 15.4588 51.021 16.2145 51.021 19.6847C51.021 22.6875 53.2781 24.3381 56.1815 24.3381ZM56.8278 21.9517C55.1474 21.9517 53.9343 21.196 53.9343 19.7244C53.9343 18.1335 55.3462 17.5668 57.0664 17.3381C58.0309 17.2088 60.3178 16.9503 60.7454 16.5227V18.4915C60.7454 20.3011 59.3036 21.9517 56.8278 21.9517ZM67.6783 24H70.6513V14.6733C70.6513 12.6747 72.1925 11.233 74.3004 11.233C74.9169 11.233 75.6129 11.3423 75.8516 11.4119V8.56818C75.5533 8.52841 74.9666 8.49858 74.5888 8.49858C72.799 8.49858 71.2678 9.51278 70.7109 11.1534H70.5518V8.72727H67.6783V24ZM86.456 8.72727H83.3239V5.06818H80.3509V8.72727H78.1136V11.1136H80.3509V20.1321C80.3409 22.9062 82.4588 24.2486 84.8054 24.1989C85.75 24.1889 86.3864 24.0099 86.7344 23.8807L86.1974 21.4247C85.9986 21.4645 85.6307 21.554 85.1534 21.554C84.1889 21.554 83.3239 21.2358 83.3239 19.5156V11.1136H86.456V8.72727Z" fill="#0C2146"/>
<circle cx="3.5" cy="4.5" r="2.5" fill="#6839CF"/>
</svg>
