<svg width="34" height="22" viewBox="0 0 34 22" fill="none" xmlns="http://www.w3.org/2000/svg">
<g clip-path="url(#clip0)">
<path d="M0.385254 2.74463C0.385254 1.22881 1.62819 0 3.16143 0H30.9232C32.4564 0 33.6993 1.22881 33.6993 2.74463V19.2124C33.6993 20.7282 32.4564 21.957 30.9232 21.957H3.16143C1.62819 21.957 0.385254 20.7282 0.385254 19.2124V2.74463Z" fill="white"/>
<path d="M20.6858 17.4544H13.399V4.50757H20.6858V17.4544Z" fill="#6C6BBD"/>
<path d="M13.8658 10.9785C13.8658 8.3522 15.1096 6.01275 17.0465 4.50512C15.6301 3.40266 13.8425 2.74464 11.8998 2.74464C7.30054 2.74464 3.57233 6.43102 3.57233 10.9785C3.57233 15.526 7.30054 19.2124 11.8998 19.2124C13.8425 19.2124 15.6301 18.5544 17.0465 17.4519C15.1096 15.9443 13.8658 13.6048 13.8658 10.9785Z" fill="#EB001B"/>
<path d="M30.5131 10.9785C30.5131 15.526 26.7849 19.2124 22.1856 19.2124C20.2429 19.2124 18.4553 18.5544 17.0384 17.4519C18.9758 15.9443 20.2196 13.6048 20.2196 10.9785C20.2196 8.3522 18.9758 6.01275 17.0384 4.50512C18.4553 3.40266 20.2429 2.74464 22.1856 2.74464C26.7849 2.74464 30.5131 6.43102 30.5131 10.9785Z" fill="#0099DF"/>
</g>
<defs>
<clipPath id="clip0">
<rect width="33.3141" height="21.957" fill="white" transform="translate(0.385254)"/>
</clipPath>
</defs>
</svg>
