<svg width="34" height="22" viewBox="0 0 34 22" fill="none" xmlns="http://www.w3.org/2000/svg">
<g clip-path="url(#clip0)">
<path d="M0.385315 2.74463C0.385315 1.22881 1.62825 0 3.16149 0H30.9232C32.4565 0 33.6994 1.22881 33.6994 2.74463V19.2124C33.6994 20.7282 32.4565 21.957 30.9232 21.957H3.16149C1.62825 21.957 0.385315 20.7282 0.385315 19.2124V2.74463Z" fill="#CCEFFF"/>
<path d="M20.6859 17.4544H13.3991V4.50757H20.6859V17.4544Z" fill="#6C6BBD"/>
<path d="M13.8659 10.9785C13.8659 8.3522 15.1097 6.01275 17.0466 4.50512C15.6302 3.40266 13.8426 2.74464 11.8999 2.74464C7.3006 2.74464 3.57239 6.43102 3.57239 10.9785C3.57239 15.526 7.3006 19.2124 11.8999 19.2124C13.8426 19.2124 15.6302 18.5544 17.0466 17.4519C15.1097 15.9443 13.8659 13.6048 13.8659 10.9785Z" fill="#EB001B"/>
<path d="M30.5132 10.9785C30.5132 15.526 26.785 19.2124 22.1857 19.2124C20.243 19.2124 18.4554 18.5544 17.0384 17.4519C18.9759 15.9443 20.2197 13.6048 20.2197 10.9785C20.2197 8.3522 18.9759 6.01275 17.0384 4.50512C18.4554 3.40266 20.243 2.74464 22.1857 2.74464C26.785 2.74464 30.5132 6.43102 30.5132 10.9785Z" fill="#0099DF"/>
</g>
<defs>
<clipPath id="clip0">
<rect width="33.3141" height="21.957" fill="white" transform="translate(0.385315)"/>
</clipPath>
</defs>
</svg>
