<svg width="34" height="22" viewBox="0 0 34 22" fill="none" xmlns="http://www.w3.org/2000/svg">
<g clip-path="url(#clip0)">
<path d="M0 2.74463C0 1.22881 1.24294 0 2.77617 0H30.5379C32.0712 0 33.3141 1.22881 33.3141 2.74463V19.2124C33.3141 20.7282 32.0712 21.957 30.5379 21.957H2.77617C1.24294 21.957 0 20.7282 0 19.2124V2.74463Z" fill="white"/>
<g clip-path="url(#clip1)">
<path fill-rule="evenodd" clip-rule="evenodd" d="M10.8146 7V7.00349C10.811 7.00349 9.68183 7 9.38072 8.05153C9.1047 9.01572 8.32682 11.6777 8.30532 11.7511H8.09023C8.09023 11.7511 7.29444 9.02969 7.01483 8.04804C6.71372 6.99651 5.58096 7 5.58096 7H3V15H5.58096V10.2489H5.6885H5.79604L7.30161 15H9.09394L10.5995 10.2524H10.8146V15H13.3956V7H10.8146Z" fill="#4DB45E"/>
<path fill-rule="evenodd" clip-rule="evenodd" d="M20.2423 7C20.2423 7 19.4859 7.06638 19.1311 7.83843L17.3029 11.7511H17.0878V7H14.5068V15H16.9444C16.9444 15 17.7366 14.9301 18.0915 14.1616L19.8838 10.2489H20.0989V15H22.6799V7H20.2423Z" fill="#4DB45E"/>
<path fill-rule="evenodd" clip-rule="evenodd" d="M23.827 10.6333V15.0001H26.408V12.4499H29.204C30.4228 12.4499 31.4552 11.6918 31.8388 10.6333H23.827Z" fill="#4DB45E"/>
<path fill-rule="evenodd" clip-rule="evenodd" d="M29.204 7H23.4649C23.7517 8.52314 24.9239 9.74585 26.4402 10.1441C26.7843 10.2349 27.1464 10.2838 27.5192 10.2838H31.9427C31.9821 10.1022 32 9.91703 32 9.72489C32 8.21921 30.749 7 29.204 7Z" fill="url(#paint0_linear)"/>
</g>
</g>
<defs>
<linearGradient id="paint0_linear" x1="23.4656" y1="8.64192" x2="32" y2="8.64192" gradientUnits="userSpaceOnUse">
<stop offset="0.3" stop-color="#00B4E6"/>
<stop offset="1" stop-color="#088CCB"/>
</linearGradient>
<clipPath id="clip0">
<rect width="33.3141" height="21.957" fill="white"/>
</clipPath>
<clipPath id="clip1">
<rect width="29" height="8" fill="white" transform="translate(3 7)"/>
</clipPath>
</defs>
</svg>
