<svg width="22" height="44" viewBox="0 0 22 44" fill="none" xmlns="http://www.w3.org/2000/svg">
<path d="M18.81 0H3.19C2.76893 0.00130763 2.35225 0.0857069 1.96385 0.24836C1.57546 0.411012 1.22298 0.64872 0.926632 0.947857C0.630282 1.24699 0.395883 1.60168 0.236873 1.99158C0.0778631 2.38148 -0.0026322 2.79893 1.56721e-06 3.22V40.83C0.00788937 41.6718 0.347141 42.4765 0.944246 43.0699C1.54135 43.6632 2.34821 43.9974 3.19 44H18.81C19.6518 43.9974 20.4587 43.6632 21.0558 43.0699C21.6529 42.4765 21.9921 41.6718 22 40.83V3.22C22.0026 2.79893 21.9221 2.38148 21.7631 1.99158C21.6041 1.60168 21.3697 1.24699 21.0734 0.947857C20.777 0.64872 20.4245 0.411012 20.0361 0.24836C19.6478 0.0857069 19.2311 0.00130763 18.81 0ZM13.08 1.17C13.1453 1.17 13.2091 1.18935 13.2633 1.22562C13.3176 1.26188 13.3599 1.31341 13.3849 1.37371C13.4099 1.43401 13.4164 1.50037 13.4037 1.56438C13.3909 1.62839 13.3595 1.68719 13.3133 1.73335C13.2672 1.7795 13.2084 1.81093 13.1444 1.82366C13.0804 1.83639 13.014 1.82986 12.9537 1.80488C12.8934 1.7799 12.8419 1.73761 12.8056 1.68334C12.7694 1.62907 12.75 1.56527 12.75 1.5C12.75 1.41248 12.7848 1.32854 12.8467 1.26665C12.9085 1.20477 12.9925 1.17 13.08 1.17ZM10 1.25H12C12.0663 1.25 12.1299 1.27634 12.1768 1.32322C12.2237 1.37011 12.25 1.4337 12.25 1.5C12.25 1.5663 12.2237 1.62989 12.1768 1.67678C12.1299 1.72366 12.0663 1.75 12 1.75H10C9.9337 1.75 9.87011 1.72366 9.82323 1.67678C9.77634 1.62989 9.75 1.5663 9.75 1.5C9.75 1.4337 9.77634 1.37011 9.82323 1.32322C9.87011 1.27634 9.9337 1.25 10 1.25ZM21 40.83C20.9947 41.4074 20.7617 41.9593 20.3515 42.3657C19.9414 42.772 19.3874 43 18.81 43H3.19C2.61263 43 2.0586 42.772 1.64847 42.3657C1.23833 41.9593 1.00527 41.4074 1 40.83V3.22C0.996027 2.92989 1.04974 2.64188 1.15802 2.37271C1.26629 2.10353 1.42698 1.85855 1.63073 1.65201C1.83449 1.44546 2.07726 1.28146 2.34494 1.16953C2.61261 1.0576 2.89986 0.999973 3.19 1H5.5C5.63261 1 5.75979 1.05268 5.85355 1.14645C5.94732 1.24021 6 1.36739 6 1.5V2C6 2.26522 6.10536 2.51957 6.29289 2.70711C6.48043 2.89464 6.73479 3 7 3H15C15.2652 3 15.5196 2.89464 15.7071 2.70711C15.8946 2.51957 16 2.26522 16 2V1.5C16 1.36739 16.0527 1.24021 16.1464 1.14645C16.2402 1.05268 16.3674 1 16.5 1H18.81C19.1001 0.999973 19.3874 1.0576 19.6551 1.16953C19.9227 1.28146 20.1655 1.44546 20.3693 1.65201C20.573 1.85855 20.7337 2.10353 20.842 2.37271C20.9503 2.64188 21.004 2.92989 21 3.22V40.83Z" fill="#6839CF"/>
</svg>
