<svg width="33" height="35" viewBox="0 0 33 35" fill="none" xmlns="http://www.w3.org/2000/svg">
<path d="M20.1533 32.2914V15.4945C21.5027 16.2375 23.0231 16.6221 24.5678 16.6079V32.488C24.5234 32.7851 24.3826 33.0597 24.1667 33.2693C23.9492 33.4805 23.6679 33.6135 23.3671 33.6478H21.4473C21.1062 33.6157 20.7878 33.462 20.5503 33.2147C20.3105 32.965 20.1696 32.6369 20.1533 32.2914Z" stroke="#9696A0"/>
<path d="M25.8103 14.0974L25.7986 14.0977L25.7868 14.0986C21.6224 14.4093 18.0875 11.1349 18.0875 7.56942C18.0875 4.01521 21.6085 0.878563 25.8056 1.02908C28.4882 1.13067 30.2054 2.80499 31.9246 4.6099C32.2193 4.93529 32.3204 5.18662 32.3627 5.53766C32.3964 5.81751 32.3916 6.132 32.3847 6.57636C32.3813 6.79482 32.3775 7.04466 32.3775 7.3372C32.3775 8.48876 32.3758 9.07037 32.3075 9.49247C32.2465 9.86948 32.1328 10.1152 31.8424 10.58L31.8423 10.5799L31.8384 10.5865C31.2082 11.6299 30.3259 12.4982 29.2726 13.1116C28.2194 13.7251 27.0288 14.0641 25.8103 14.0974ZM29.1061 5.4639L29.1019 5.49597V5.52831V9.70831V9.74065L29.1061 9.77273C29.1447 10.0698 29.2901 10.3427 29.5151 10.5404C29.7402 10.7381 30.0295 10.8472 30.3291 10.8472C30.6287 10.8472 30.918 10.7381 31.1431 10.5404C31.3682 10.3427 31.5136 10.0698 31.5522 9.77273L31.5564 9.74065V9.70831V5.52831V5.49597L31.5522 5.4639C31.5136 5.16681 31.3682 4.89393 31.1431 4.69621C30.918 4.49849 30.6287 4.38946 30.3291 4.38946C30.0296 4.38946 29.7402 4.49849 29.5151 4.69621C29.2901 4.89393 29.1447 5.16681 29.1061 5.4639ZM22.5308 9.18165H22.5314H24.8291C25.2648 9.18165 25.6827 9.00857 25.9907 8.70049C26.2988 8.39241 26.4719 7.97456 26.4719 7.53887C26.4719 7.10318 26.2988 6.68533 25.9907 6.37725C25.6827 6.06917 25.2648 5.89609 24.8291 5.89609H22.5326C22.0969 5.89609 21.679 6.06905 21.3707 6.37698C21.0625 6.68491 20.889 7.10262 20.8886 7.53833L21.3886 7.53887L20.8886 7.5394C20.889 7.97481 21.0622 8.39225 21.3701 8.70013C21.678 9.00801 22.0954 9.18118 22.5308 9.18165Z" stroke="#9696A0"/>
<path d="M1.16125 10.5925L1.1613 10.5925L1.15725 10.586C0.866777 10.1212 0.753114 9.87549 0.69211 9.49849C0.623808 9.07639 0.622141 8.49478 0.622141 7.34322C0.622141 7.05068 0.618284 6.80084 0.614911 6.58239C0.608051 6.13802 0.603196 5.82353 0.636889 5.54368C0.679156 5.19264 0.780283 4.94131 1.07502 4.61591C2.79417 2.81101 4.51135 1.13671 7.19394 1.0351C11.391 0.885778 14.9121 4.02604 14.9121 7.57544C14.9121 11.141 11.3772 14.4153 7.21278 14.1046L7.20104 14.1037L7.18926 14.1034C5.9708 14.0701 4.78025 13.7311 3.72696 13.1176C2.67367 12.5042 1.79142 11.6359 1.16125 10.5925ZM3.89353 9.77874L3.8977 9.74667V9.71433V5.53433V5.50199L3.89353 5.46991C3.85494 5.17283 3.70953 4.89995 3.48446 4.70223C3.25939 4.50451 2.97005 4.39547 2.67047 4.39547C2.37089 4.39547 2.08156 4.50451 1.85649 4.70223C1.63142 4.89995 1.48601 5.17283 1.44742 5.46991L1.44325 5.50199V5.53433V9.71433V9.74667L1.44742 9.77874C1.48601 10.0758 1.63142 10.3487 1.85649 10.5464C2.08156 10.7441 2.37089 10.8532 2.67047 10.8532C2.97005 10.8532 3.25939 10.7441 3.48446 10.5464C3.70953 10.3487 3.85494 10.0758 3.89353 9.77874ZM8.1717 9.18766H10.4683C10.9039 9.18766 11.3218 9.01458 11.6299 8.7065C11.938 8.39842 12.111 7.98058 12.111 7.54489C12.111 7.10919 11.938 6.69135 11.6299 6.38327C11.3218 6.07519 10.9039 5.90211 10.4683 5.90211H8.1717C7.736 5.90211 7.31816 6.07519 7.01008 6.38327C6.702 6.69135 6.52892 7.10919 6.52892 7.54489C6.52892 7.98058 6.702 8.39842 7.01008 8.7065C7.31816 9.01458 7.736 9.18766 8.1717 9.18766Z" stroke="#9696A0"/>
<path d="M8.8333 33.2803C8.61739 33.0707 8.47662 32.7961 8.43225 32.499V16.6139C9.97692 16.6277 11.4972 16.2431 12.8467 15.5003V32.3024C12.8305 32.6479 12.6895 32.976 12.4498 33.2256C12.2122 33.473 11.8938 33.6266 11.5527 33.6588H9.63293C9.3321 33.6245 9.05085 33.4915 8.8333 33.2803Z" stroke="#9696A0"/>
</svg>
