<svg width="33" height="35" viewBox="0 0 33 35" fill="none" xmlns="http://www.w3.org/2000/svg">
<path d="M25.0678 32.5223C25.0141 32.9429 24.8192 33.3327 24.515 33.6281C24.2108 33.9234 23.8153 34.1067 23.3933 34.1478H21.4255C20.9557 34.1097 20.5161 33.901 20.1896 33.561C19.8631 33.221 19.6724 32.7733 19.6533 32.3023V14.5972C21.2364 15.6947 23.146 16.2206 25.0678 16.0883V32.5223Z" fill="#6839CF"/>
<path d="M17.5875 7.56942C17.5875 11.4561 21.4008 14.9272 25.824 14.5972C27.1262 14.5616 28.3986 14.1993 29.5243 13.5437C30.65 12.8881 31.5929 11.9601 32.2664 10.845C32.8775 9.8672 32.8775 9.59831 32.8775 7.3372C32.8775 5.66276 33.0241 5.07609 32.2908 4.26942C30.5797 2.47276 28.7341 0.639423 25.824 0.529423C21.4008 0.370535 17.5875 3.67787 17.5875 7.56942ZM29.6019 5.52831C29.6249 5.35167 29.7113 5.18941 29.8451 5.07185C29.979 4.95429 30.151 4.88946 30.3291 4.88946C30.5073 4.88946 30.6793 4.95429 30.8131 5.07185C30.9469 5.18941 31.0334 5.35167 31.0564 5.52831V9.70831C31.0334 9.88496 30.9469 10.0472 30.8131 10.1648C30.6793 10.2823 30.5073 10.3472 30.3291 10.3472C30.151 10.3472 29.979 10.2823 29.8451 10.1648C29.7113 10.0472 29.6249 9.88496 29.6019 9.70831V5.52831ZM21.3886 7.53887C21.3889 7.23567 21.5096 6.945 21.7241 6.73073C21.9386 6.51645 22.2294 6.39609 22.5326 6.39609H24.8291C25.1322 6.39609 25.4229 6.51649 25.6372 6.7308C25.8515 6.94511 25.9719 7.23579 25.9719 7.53887C25.9719 7.84195 25.8515 8.13262 25.6372 8.34693C25.4229 8.56125 25.1322 8.68165 24.8291 8.68165H22.5314C22.2284 8.68132 21.9379 8.56082 21.7236 8.34658C21.5094 8.13233 21.3889 7.84185 21.3886 7.53887Z" fill="#6839CF"/>
<path d="M7.17559 0.535439C4.26547 0.645439 2.41992 2.47877 0.708808 4.27544C-0.0245255 5.08211 0.122141 5.66878 0.122141 7.34322C0.122141 9.60433 0.122141 9.87322 0.733252 10.851C1.40674 11.9661 2.34963 12.8941 3.47531 13.5497C4.601 14.2053 5.87338 14.5676 7.17559 14.6032C11.5988 14.9332 15.4121 11.4621 15.4121 7.57544C15.4121 3.68877 11.5988 0.377772 7.17559 0.535439ZM3.3977 9.71433C3.37475 9.89097 3.28829 10.0532 3.15447 10.1708C3.02064 10.2884 2.8486 10.3532 2.67047 10.3532C2.49235 10.3532 2.32031 10.2884 2.18648 10.1708C2.05266 10.0532 1.9662 9.89097 1.94325 9.71433V5.53433C1.9662 5.35768 2.05266 5.19543 2.18648 5.07787C2.32031 4.96031 2.49235 4.89547 2.67047 4.89547C2.8486 4.89547 3.02064 4.96031 3.15447 5.07787C3.28829 5.19543 3.37475 5.35768 3.3977 5.53433V9.71433ZM10.4683 8.68766H8.1717C7.86861 8.68766 7.57794 8.56726 7.36363 8.35295C7.14932 8.13864 7.02892 7.84797 7.02892 7.54489C7.02892 7.2418 7.14932 6.95113 7.36363 6.73682C7.57794 6.52251 7.86861 6.40211 8.1717 6.40211H10.4683C10.7713 6.40211 11.062 6.52251 11.2763 6.73682C11.4906 6.95113 11.611 7.2418 11.611 7.54489C11.611 7.84797 11.4906 8.13864 11.2763 8.35295C11.062 8.56726 10.7713 8.68766 10.4683 8.68766Z" fill="#6839CF"/>
<path d="M7.93225 32.5333C7.98591 32.9538 8.18081 33.3437 8.48502 33.6391C8.78923 33.9344 9.18472 34.1177 9.6067 34.1588H11.5745C12.0443 34.1207 12.4839 33.912 12.8104 33.572C13.1369 33.232 13.3276 32.7842 13.3467 32.3133V14.6033C11.7633 15.7003 9.85397 16.2261 7.93225 16.0944V32.5333Z" fill="#6839CF"/>
</svg>
