<svg width="36" height="45" viewBox="0 0 36 45" fill="none" xmlns="http://www.w3.org/2000/svg">
<path d="M9.24 6.28959H11.24C11.3066 6.29052 11.3702 6.31764 11.4169 6.36507C11.4637 6.41251 11.4899 6.47645 11.4899 6.54306C11.4899 6.60968 11.4637 6.67362 11.4169 6.72105C11.3702 6.76848 11.3066 6.7956 11.24 6.79654H9.24C9.17339 6.7956 9.10983 6.76848 9.06305 6.72105C9.01628 6.67362 8.99006 6.60968 8.99006 6.54306C8.99006 6.47645 9.01628 6.41251 9.06305 6.36507C9.10983 6.31764 9.17339 6.29052 9.24 6.28959ZM12.32 6.20848C12.3864 6.20756 12.4515 6.2264 12.5071 6.26261C12.5628 6.29882 12.6064 6.35076 12.6324 6.41182C12.6585 6.47288 12.6657 6.5403 12.6534 6.60551C12.641 6.67072 12.6095 6.73078 12.5629 6.77804C12.5162 6.8253 12.4566 6.85763 12.3916 6.87091C12.3266 6.8842 12.259 6.87784 12.1976 6.85265C12.1362 6.82746 12.0837 6.78458 12.0467 6.72945C12.0097 6.67432 11.99 6.60945 11.99 6.54307C11.9899 6.49838 11.9988 6.45412 12.016 6.41288C12.0332 6.37163 12.0584 6.33422 12.0902 6.30282C12.1217 6.27169 12.1592 6.24728 12.2004 6.23106C12.2416 6.21484 12.2857 6.20716 12.33 6.20848H12.32ZM3.19 44.0001C2.65169 44.035 2.12107 43.8579 1.71176 43.5065C1.30244 43.1551 1.04696 42.6575 1 42.1201V7.83481C1.04872 7.30051 1.30578 6.80685 1.7156 6.46059C2.12542 6.11433 2.65506 5.94328 3.19 5.98445H5C5.12213 5.97506 5.24305 6.01411 5.33661 6.09317C5.43018 6.17222 5.48887 6.28492 5.5 6.40691V7.13263C5.52092 7.37896 5.6371 7.60742 5.82385 7.76941C6.0106 7.93141 6.25318 8.01416 6.5 8.00007H13V5.00007H3.19C2.41135 4.9426 1.6412 5.19264 1.04482 5.69654C0.448427 6.20043 0.0733239 6.91803 0 7.69535L0 42.1438C0.0644387 42.9375 0.431527 43.676 1.02531 44.2066C1.61909 44.7371 2.39411 45.0191 3.19 44.9942H14.38C13.9797 44.7597 13.6558 44.4145 13.4473 44.0001H3.19ZM35.0227 42.1203C35.0069 42.6268 34.7935 43.107 34.4283 43.4582C34.063 43.8095 33.5749 44.004 33.0682 44.0001H16.9318C16.4275 44.0032 15.9422 43.8078 15.5807 43.4561C15.2192 43.1044 15.0106 42.6245 15 42.1203V3.81825C15.0066 3.57176 15.062 3.32903 15.1628 3.10402C15.2637 2.87901 15.408 2.67617 15.5876 2.50718C15.7671 2.33819 15.9783 2.20638 16.209 2.11935C16.4397 2.03232 16.6854 1.99178 16.9318 2.00007H19.625C19.75 1.99572 19.8717 2.04113 19.9633 2.12634C20.0549 2.21155 20.1089 2.3296 20.1136 2.45462V3.07099C20.1221 3.3231 20.2292 3.5618 20.4121 3.73561C20.5949 3.90941 20.8387 4.00439 21.0909 4.00007H28.9091C29.1613 4.0044 29.4051 3.90941 29.5879 3.73561C29.7708 3.5618 29.8779 3.3231 29.8864 3.07099V2.45462C29.8911 2.3296 29.9451 2.21155 30.0367 2.12634C30.1283 2.04113 30.25 1.99572 30.375 2.00007H33.0682C33.5683 1.98263 34.0549 2.16424 34.4213 2.50508C34.7877 2.84593 35.004 3.31817 35.0227 3.81825V42.1203ZM24.3822 2.25585H26.3592C26.4255 2.25585 26.4891 2.28219 26.536 2.32907C26.5828 2.37595 26.6092 2.43954 26.6092 2.50585C26.6092 2.57215 26.5828 2.63574 26.536 2.68262C26.4891 2.72951 26.4255 2.75585 26.3592 2.75585H24.3822C24.3159 2.75585 24.2523 2.72951 24.2054 2.68262C24.1585 2.63574 24.1322 2.57215 24.1322 2.50585C24.1322 2.43954 24.1585 2.37595 24.2054 2.32907C24.2523 2.28219 24.3159 2.25585 24.3822 2.25585ZM27.4268 2.17585C27.4922 2.1751 27.5564 2.19381 27.6111 2.22961C27.6659 2.26541 27.7088 2.31668 27.7343 2.37691C27.7599 2.43714 27.767 2.50361 27.7547 2.56787C27.7424 2.63213 27.7113 2.69129 27.6653 2.73782C27.6193 2.78435 27.5605 2.81616 27.4964 2.8292C27.4322 2.84224 27.3657 2.83593 27.3052 2.81107C27.2447 2.78621 27.1929 2.74392 27.1565 2.68957C27.12 2.63523 27.1006 2.57128 27.1006 2.50585C27.1003 2.46276 27.1086 2.42004 27.1248 2.38014C27.1411 2.34023 27.165 2.30392 27.1953 2.27328C27.2256 2.24264 27.2616 2.21826 27.3014 2.20154C27.3411 2.18482 27.3837 2.17609 27.4268 2.17584V2.17585ZM33.0682 1.00007H16.9318C16.18 0.975385 15.4492 1.24991 14.8995 1.76342C14.3499 2.27692 14.0264 2.98748 14 3.7392V42.1994C14.0238 42.9569 14.3447 43.6746 14.8932 44.1975C15.4418 44.7205 16.174 45.0066 16.9318 44.9942H33.0682C33.826 45.0066 34.5582 44.7205 35.1068 44.1975C35.6553 43.6746 35.9762 42.9569 36 42.1994V3.7392C35.9736 2.98748 35.6501 2.27692 35.1005 1.76341C34.5508 1.24991 33.82 0.975383 33.0682 1.00007Z" fill="#9696A0"/>
</svg>
