<svg width="23" height="44" viewBox="0 0 23 44" fill="none" xmlns="http://www.w3.org/2000/svg">
<path d="M22 14.9999V13.3299C22.0141 12.3124 21.6866 11.3195 21.07 10.5099C20.75 10.0999 20.36 9.72993 20.07 9.31993C19.7055 8.8658 19.3715 8.3881 19.07 7.88993C18.5575 7.10309 18.2419 6.20444 18.15 5.26993C18.0562 4.5168 18.0061 3.75886 18 2.99993C18.0154 2.85701 18.0154 2.71284 18 2.56993C17.9339 2.29292 17.7893 2.04085 17.5836 1.84396C17.3778 1.64708 17.1196 1.51373 16.84 1.45993C14.8348 1.12275 12.8031 0.968783 10.77 0.999927C8.89697 0.955879 7.02425 1.09993 5.17999 1.42993C4.89536 1.48829 4.63323 1.6265 4.42426 1.82838C4.21529 2.03026 4.06813 2.28747 3.99999 2.56993C3.88999 3.10993 4.13999 5.73993 3.20999 7.32993C2.89999 7.88993 1.53999 9.99993 1.53999 9.99993C1.06184 10.414 0.677238 10.9251 0.411726 11.4992C0.146214 12.0734 0.00586413 12.6974 -7.17404e-06 13.3299V30.6699C-0.0199928 31.9258 0.433392 33.1431 1.26999 34.0799C1.73999 34.6699 2.36999 35.3299 2.36999 35.3299C2.73885 35.7481 3.05768 36.2079 3.31999 36.6999C4.24999 38.2899 3.87999 40.9299 3.98999 41.4599C4.05606 41.7369 4.20064 41.989 4.4064 42.1859C4.61215 42.3828 4.87034 42.5161 5.14999 42.5699C7.19305 42.8973 9.26129 43.0412 11.33 42.9999C13.1997 43.0439 15.0691 42.8999 16.91 42.5699C17.1915 42.5093 17.4499 42.3699 17.6553 42.1681C17.8607 41.9663 18.0045 41.7103 18.07 41.4299C18.19 40.8899 17.93 38.2599 18.87 36.6699C19.19 36.1099 20.53 33.9999 20.53 33.9999C20.9964 33.5802 21.3685 33.0665 21.6219 32.4925C21.8753 31.9185 22.0042 31.2973 22 30.6699V19.9999H23V14.9999H22ZM4.10999 7.83993C4.76104 6.45002 5.06638 4.92332 4.99999 3.38993C4.98724 3.18012 4.98724 2.96973 4.99999 2.75993C4.99999 2.58993 5.11999 2.45993 5.49999 2.33993C7.2567 2.07207 9.03347 1.95831 10.81 1.99993C12.7191 1.95832 14.6284 2.06866 16.52 2.32993C16.96 2.46993 17 2.60993 17.02 2.72993C17.04 2.84993 17.02 3.04993 17.02 3.32993C16.9478 4.87675 17.2425 6.41871 17.88 7.82993C18.1155 8.24035 18.383 8.63156 18.68 8.99993C18.61 8.99993 3.36999 8.99993 3.33999 8.99993C3.63363 8.63912 3.89151 8.25063 4.10999 7.83993ZM18 36.1599C17.3607 37.5531 17.0624 39.0785 17.13 40.6099C17.1427 40.8197 17.1427 41.0301 17.13 41.2399C17.13 41.4099 17.01 41.5399 16.63 41.6599C14.8733 41.9282 13.0965 42.042 11.32 41.9999C9.38101 42.0412 7.44178 41.9308 5.51999 41.6699C5.07999 41.5299 5.03999 41.3899 5.01999 41.2699C4.99999 41.1499 5.01999 40.9499 5.01999 40.6699C5.09715 39.1227 4.80224 37.5796 4.15999 36.1699C3.90509 35.7625 3.62452 35.3717 3.31999 34.9999H18.72C18.4516 35.3682 18.211 35.756 18 36.1599ZM21 30.6699C21.0284 31.0822 20.9747 31.4961 20.8419 31.8874C20.7091 32.2788 20.4998 32.6398 20.2263 32.9497C19.9527 33.2595 19.6204 33.5119 19.2485 33.6922C18.8766 33.8724 18.4726 33.9771 18.06 33.9999H4.05999C3.21557 33.9559 2.4221 33.5824 1.84997 32.9598C1.27783 32.3372 0.972665 31.5151 0.999993 30.6699V13.2099C0.994118 12.3825 1.31 11.5851 1.88094 10.9862C2.45188 10.3873 3.23322 10.0336 4.05999 9.99993H18.06C18.8744 10.0389 19.6405 10.3981 20.1912 10.9994C20.7419 11.6007 21.0326 12.3952 21 13.2099V30.6699Z" fill="#6839CF"/>
</svg>
