<svg width="63" height="34" viewBox="0 0 63 34" fill="none" xmlns="http://www.w3.org/2000/svg">
<path d="M56.9423 30.9815V2.69447C56.9423 1.54012 56.3099 0.888916 55.125 0.888916H7.875C6.69012 0.888916 6.05769 1.49558 6.05769 2.69447V30.9815H0C0.0642115 31.0922 0.153865 31.3703 0.255635 31.3703C0.255635 31.3703 2.76473 32.8725 5.87596 33.082C8.98477 33.2914 15.0715 33.401 15.0788 33.3853C15.0812 33.3817 30.7319 33.3889 30.7319 33.3889L46.4443 33.3853C46.4443 33.3853 53.7414 33.2878 56.8514 33.082C59.9627 32.8761 62.4718 31.3703 62.4718 31.3703C62.5735 31.3703 62.9358 31.0922 63 30.9815H56.9423ZM8.48077 3.29632H54.5192V30.9815H8.48077V3.29632Z" fill="#9696A0"/>
</svg>
