<svg width="35" height="22" viewBox="0 0 35 22" fill="none" xmlns="http://www.w3.org/2000/svg">
<g clip-path="url(#clip0)">
<path d="M0 2.74463C0 1.22881 1.27118 0 2.83927 0H31.232C32.8 0 34.0712 1.22881 34.0712 2.74463V19.2124C34.0712 20.7282 32.8 21.957 31.232 21.957H2.83927C1.27118 21.957 0 20.7282 0 19.2124V2.74463Z" fill="#CCDEFF"/>
<path d="M7.64531 7.90264C7.28943 7.66614 6.82504 7.54761 6.25214 7.54761H4.03417C3.85854 7.54761 3.76151 7.63252 3.74308 7.80217L2.84209 13.2694C2.83273 13.3231 2.84663 13.3722 2.88366 13.4168C2.92048 13.4615 2.96679 13.4838 3.02226 13.4838H4.07578C4.26056 13.4838 4.36212 13.3991 4.38077 13.2292L4.63025 11.7553C4.63936 11.6838 4.67186 11.6258 4.72732 11.581C4.78274 11.5364 4.85206 11.5072 4.93524 11.4938C5.01841 11.4806 5.09684 11.4738 5.17091 11.4738C5.24476 11.4738 5.33251 11.4784 5.43433 11.4873C5.53589 11.4962 5.60064 11.5005 5.62839 11.5005C6.42311 11.5005 7.0469 11.2841 7.49981 10.8507C7.9525 10.4175 8.1791 9.81677 8.1791 9.0483C8.1791 8.52124 8.00102 8.13938 7.64531 7.90252V7.90264ZM6.50175 9.54427C6.4554 9.85699 6.3354 10.0624 6.14134 10.1607C5.94724 10.2591 5.67 10.3081 5.30963 10.3081L4.85215 10.3214L5.08786 8.88758C5.10625 8.7894 5.16629 8.74025 5.26802 8.74025H5.53149C5.90097 8.74025 6.16913 8.79173 6.33548 8.89429C6.50175 8.9971 6.55721 9.21381 6.50175 9.54427Z" fill="#003087"/>
<path d="M31.0514 7.54761H30.0257C29.9238 7.54761 29.8638 7.59676 29.8455 7.6951L28.9444 13.2696L28.9305 13.2964C28.9305 13.3413 28.949 13.3835 28.9861 13.4237C29.0228 13.4639 29.0692 13.484 29.1246 13.484H30.0397C30.215 13.484 30.312 13.3993 30.3308 13.2294L31.2318 7.74872V7.7354C31.2317 7.61027 31.1715 7.54777 31.0514 7.54777V7.54761Z" fill="#009CDE"/>
<path d="M18.6585 9.70639C18.6585 9.66183 18.64 9.61931 18.6032 9.57921C18.5662 9.53903 18.5245 9.5188 18.4784 9.5188H17.4111C17.3092 9.5188 17.226 9.56369 17.1615 9.65278L15.6921 11.7433L15.0822 9.73326C15.0357 9.59044 14.9342 9.5188 14.7772 9.5188H13.7374C13.691 9.5188 13.6495 9.53895 13.6127 9.57921C13.5757 9.61931 13.5573 9.66191 13.5573 9.70639C13.5573 9.72437 13.6474 9.98782 13.8276 10.497C14.0077 11.0064 14.2018 11.5558 14.4098 12.1454C14.6177 12.735 14.7262 13.0478 14.7355 13.0832C13.9777 14.084 13.5989 14.6199 13.5989 14.6913C13.5989 14.8075 13.6588 14.8655 13.7791 14.8655H14.8465C14.9481 14.8655 15.0312 14.821 15.096 14.7316L18.631 9.80015C18.6493 9.78245 18.6585 9.75132 18.6585 9.70635V9.70639Z" fill="#003087"/>
<path d="M28.5987 9.51689H27.5451C27.4156 9.51689 27.3374 9.66434 27.3096 9.95921C27.069 9.60196 26.6304 9.4231 25.9925 9.4231C25.3272 9.4231 24.7611 9.66434 24.2945 10.1468C23.8277 10.6292 23.5945 11.1966 23.5945 11.8487C23.5945 12.3759 23.7539 12.7957 24.0726 13.1083C24.3915 13.4212 24.8188 13.5773 25.355 13.5773C25.623 13.5773 25.8956 13.5236 26.1728 13.4165C26.4501 13.3093 26.667 13.1664 26.8245 12.9877C26.8245 12.9967 26.815 13.0367 26.7967 13.1081C26.7781 13.1797 26.769 13.2335 26.769 13.2689C26.769 13.4121 26.8289 13.4833 26.9492 13.4833H27.9058C28.0811 13.4833 28.1829 13.3986 28.2105 13.2288L28.779 9.73127C28.7881 9.67762 28.7743 9.62859 28.7374 9.58386C28.7002 9.5393 28.6541 9.51689 28.5987 9.51689ZM26.7897 12.1569C26.554 12.3802 26.2698 12.4918 25.9372 12.4918C25.669 12.4918 25.4521 12.4205 25.2856 12.2775C25.1192 12.1348 25.036 11.9383 25.036 11.6878C25.036 11.3576 25.1516 11.0781 25.3827 10.8504C25.6134 10.6225 25.9002 10.5087 26.2421 10.5087C26.5007 10.5087 26.7156 10.5824 26.8867 10.7297C27.0575 10.8771 27.1433 11.0804 27.1433 11.3395C27.1432 11.6611 27.0253 11.9336 26.7897 12.1569Z" fill="#009CDE"/>
<path d="M12.8509 9.51689H11.7973C11.6677 9.51689 11.5893 9.66434 11.5616 9.95921C11.3121 9.60196 10.8731 9.4231 10.2447 9.4231C9.57926 9.4231 9.01314 9.66434 8.54651 10.1468C8.07975 10.6292 7.8465 11.1966 7.8465 11.8487C7.8465 12.3759 8.00594 12.7957 8.32478 13.1083C8.64362 13.4212 9.07094 13.5773 9.60702 13.5773C9.86565 13.5773 10.1338 13.5236 10.411 13.4165C10.6882 13.3093 10.9101 13.1664 11.0764 12.9877C11.0393 13.0948 11.0209 13.1886 11.0209 13.2689C11.0209 13.4121 11.081 13.4833 11.2011 13.4833H12.1576C12.3331 13.4833 12.4349 13.3986 12.4626 13.2288L13.0309 9.73127C13.04 9.67762 13.0262 9.62859 12.9894 9.58386C12.9524 9.5393 12.9062 9.51689 12.8509 9.51689ZM11.0418 12.1635C10.8061 12.3826 10.5172 12.4918 10.1755 12.4918C9.9073 12.4918 9.69244 12.4205 9.53083 12.2775C9.36902 12.1348 9.28821 11.9383 9.28821 11.6878C9.28821 11.3576 9.40368 11.0781 9.63481 10.8504C9.86569 10.6225 10.1522 10.5086 10.4943 10.5086C10.7529 10.5086 10.9678 10.5824 11.1389 10.7297C11.3097 10.8771 11.3953 11.0804 11.3953 11.3395C11.3953 11.6701 11.2775 11.9449 11.0418 12.1635Z" fill="#003087"/>
<path d="M23.3929 7.90264C23.037 7.66614 22.5728 7.54761 21.9998 7.54761H19.7956C19.6107 7.54761 19.509 7.63252 19.4907 7.80217L18.5896 13.2694C18.5802 13.3231 18.5941 13.3722 18.6312 13.4168C18.6678 13.4615 18.7143 13.4838 18.7698 13.4838H19.9064C20.0173 13.4838 20.0912 13.4258 20.1283 13.3096L20.3778 11.7553C20.387 11.6838 20.4193 11.6258 20.4749 11.581C20.5303 11.5364 20.5996 11.5072 20.6828 11.4938C20.7659 11.4806 20.8443 11.4738 20.9184 11.4738C20.9923 11.4738 21.08 11.4784 21.1818 11.4873C21.2834 11.4962 21.3483 11.5005 21.3758 11.5005C22.1707 11.5005 22.7944 11.2841 23.2473 10.8507C23.7002 10.4175 23.9265 9.81677 23.9265 9.0483C23.9266 8.52124 23.7486 8.13934 23.3929 7.90252V7.90264ZM21.972 10.107C21.7687 10.241 21.4637 10.3079 21.0572 10.3079L20.6135 10.3214L20.8492 8.88749C20.8675 8.78936 20.9276 8.74012 21.0293 8.74012H21.2788C21.4821 8.74012 21.6438 8.74909 21.7641 8.76691C21.884 8.78485 21.9998 8.8406 22.1106 8.93435C22.2216 9.02819 22.277 9.1645 22.277 9.34308C22.277 9.71843 22.1752 9.97291 21.972 10.107Z" fill="#009CDE"/>
</g>
<defs>
<clipPath id="clip0">
<rect width="34.0712" height="21.957" fill="white"/>
</clipPath>
</defs>
</svg>
