<svg width="34" height="22" viewBox="0 0 34 22" fill="none" xmlns="http://www.w3.org/2000/svg">
<g clip-path="url(#clip0)">
<path d="M0.071228 2.74463C0.071228 1.22881 1.31416 0 2.8474 0H30.6091C32.1424 0 33.3853 1.22881 33.3853 2.74463V19.2124C33.3853 20.7282 32.1424 21.957 30.6091 21.957H2.8474C1.31416 21.957 0.071228 20.7282 0.071228 19.2124V2.74463Z" fill="#D8E3F3"/>
<path d="M28.7423 6.88281H26.9971C26.4694 6.88281 26.0636 7.04332 25.82 7.56496L22.4919 15.0685H24.8459C24.8459 15.0685 25.2518 14.0654 25.333 13.8246C25.5765 13.8246 27.89 13.8246 28.2147 13.8246C28.2959 14.1055 28.4988 15.0284 28.4988 15.0284H30.6094L28.7423 6.88281ZM25.9824 12.1393C26.1853 11.6578 26.8753 9.85215 26.8753 9.85215C26.8753 9.89227 27.0783 9.37063 27.1594 9.08975L27.3218 9.81202C27.3218 9.81202 27.7682 11.7782 27.8494 12.1795H25.9824V12.1393Z" fill="#3362AB"/>
<path d="M22.654 12.3821C22.654 14.0674 21.1116 15.1909 18.717 15.1909C17.7023 15.1909 16.7282 14.9903 16.2006 14.7495L16.5253 12.9037L16.8094 13.0241C17.5399 13.3451 18.027 13.4655 18.9199 13.4655C19.5693 13.4655 20.2593 13.2247 20.2593 12.6629C20.2593 12.3018 19.9752 12.0611 19.0823 11.6598C18.2299 11.2585 17.0935 10.6165 17.0935 9.45285C17.0935 7.84781 18.6764 6.7644 20.9087 6.7644C21.761 6.7644 22.4916 6.92491 22.9381 7.12554L22.6134 8.89109L22.451 8.73058C22.0451 8.57008 21.5175 8.40958 20.7463 8.40958C19.894 8.4497 19.4881 8.81084 19.4881 9.13185C19.4881 9.49298 19.9752 9.77386 20.7463 10.135C22.0451 10.7369 22.654 11.419 22.654 12.3821Z" fill="#3362AB"/>
<path d="M2.84732 6.96446L2.88791 6.80396H6.37842C6.86547 6.80396 7.23075 6.96446 7.35252 7.4861L8.12367 11.0975C7.35251 9.1714 5.56667 7.60648 2.84732 6.96446Z" fill="#F9B50B"/>
<path d="M13.0348 6.88436L9.5037 15.03H7.10905L5.07968 8.20853C6.54083 9.13143 7.75845 10.576 8.20491 11.5791L8.44843 12.4218L10.6401 6.84424H13.0348V6.88436Z" fill="#3362AB"/>
<path d="M13.9683 6.84424H16.2006L14.7801 15.03H12.5478L13.9683 6.84424Z" fill="#3362AB"/>
</g>
<defs>
<clipPath id="clip0">
<rect width="33.3141" height="21.957" fill="white" transform="translate(0.071228)"/>
</clipPath>
</defs>
</svg>
