<?xml version="1.0" standalone="no"?>
<!DOCTYPE svg PUBLIC "-//W3C//DTD SVG 20010904//EN"
 "http://www.w3.org/TR/2001/REC-SVG-20010904/DTD/svg10.dtd">
<svg version="1.0" xmlns="http://www.w3.org/2000/svg"
 width="700.000000pt" height="700.000000pt" viewBox="0 0 700.000000 700.000000"
 preserveAspectRatio="xMidYMid meet">
<metadata>
Created by potrace 1.11, written by Peter Selinger 2001-2013
</metadata>
<g transform="translate(0.000000,700.000000) scale(0.100000,-0.100000)"
fill="#000000" stroke="none">
<path d="M3215 6989 c-1004 -86 -1899 -579 -2513 -1387 -373 -489 -613 -1100
-684 -1737 -17 -154 -17 -585 0 -730 44 -370 129 -694 269 -1020 276 -645 764
-1212 1365 -1586 447 -278 924 -443 1483 -511 130 -16 600 -16 730 0 451 55
818 163 1195 351 729 364 1312 973 1639 1714 144 325 238 675 283 1052 16 139
16 595 0 730 -108 889 -477 1619 -1122 2217 -507 471 -1171 785 -1865 882
-249 35 -546 45 -780 25z m1418 -1314 c185 -39 333 -183 382 -371 13 -51 15
-278 14 -1794 0 -1607 -1 -1740 -17 -1801 -44 -166 -189 -310 -357 -354 -89
-23 -2001 -23 -2090 0 -174 46 -314 186 -360 360 -13 52 -15 269 -15 1800 0
1904 -3 1795 58 1909 37 71 145 175 216 209 115 56 101 55 1141 56 798 1 971
-2 1028 -14z"/>
<path d="M3385 5495 c-37 -36 -34 -86 6 -120 l32 -26 194 3 195 3 24 28 c26
31 30 54 13 90 -19 42 -48 47 -250 47 -188 0 -190 0 -214 -25z"/>
<path d="M2572 5175 c-18 -8 -37 -26 -42 -40 -14 -36 -14 -2874 0 -2910 22
-57 -10 -55 1078 -55 705 0 1008 3 1031 11 65 23 61 -76 61 1499 0 1575 4
1476 -61 1499 -23 8 -325 11 -1033 11 -841 -1 -1006 -3 -1034 -15z"/>
<path d="M3525 1951 c-47 -22 -99 -74 -114 -114 -18 -46 -13 -133 9 -176 101
-199 399 -127 400 97 0 152 -159 256 -295 193z"/>
</g>
</svg>
